<svg xmlns="http://www.w3.org/2000/svg" viewBox="0 0 500 500.62"><defs><style>.cls-1{fill:#f9f3ed;}.cls-2{fill:#428d87;}.cls-3{fill:#6cb2ab;}.cls-4{fill:#ffb3a4;}.cls-5{fill:#1f7165;}.cls-6{fill:#fadeb5;}.cls-7{fill:#165355;}.cls-10,.cls-8{fill:#ff5b41;}.cls-8{opacity:0.6;}.cls-9{fill:#ef7c00;}.cls-11{fill:#88b217;}.cls-12{fill:#ffc32e;}.cls-13{fill:#e0e5e4;}.cls-14{fill:#c17b40;}.cls-15{fill:#528e83;}.cls-16{fill:#a35c28;}.cls-17{fill:#ffb2b3;}.cls-18{fill:#fc6b79;}.cls-19{fill:#7f440f;}.cls-20{fill:#fadcb7;}.cls-21{fill:#f07e00;}.cls-22{fill:#67aea7;}.cls-23{fill:#e3c08b;}.cls-24,.cls-38{fill:#6dc276;}.cls-25{fill:#47998f;}.cls-26{fill:#f9912b;}.cls-27{fill:#f9d5a5;}.cls-28{fill:#995f1c;}.cls-29{fill:#62afa7;}.cls-30{fill:#ffca00;}.cls-31{fill:#cdd3d2;}.cls-32{fill:#fe634e;}.cls-33{fill:#ff8f7c;}.cls-34{fill:#e4bb81;}.cls-35{fill:#ce9f67;}.cls-36{fill:none;stroke:#7f440f;stroke-miterlimit:10;}.cls-37{fill:#e5b477;}.cls-38{font-size:30px;font-family:Poppins-Medium, Poppins;font-weight:500;}.cls-39{fill:#f68d0c;}.cls-40{fill:#ff5d40;}.cls-41{fill:#eac398;}.cls-42{fill:#fde0b3;}.cls-43{fill:#51b758;}.cls-44{fill:#e3e6e5;}.cls-45{fill:#ff5c52;}.cls-46{fill:#fc826d;}.cls-47{fill:#b4c1bc;}.cls-48{fill:#65afa7;}</style></defs><g id="BACKGROUND"><rect class="cls-1" width="500" height="500"/></g><g id="OBJECTS"><path class="cls-2" d="M128.58,386.19s-57.8,8-56.4-9.36c.79-9.72,12.83-9.12,37.47-11.09,0,0-43.91-11-44-22.27s10.77-9.14,44.42,5.31c0,0-41.55-27.93-32.8-39.15,0,0,2.13-15.36,38.76,25.93,0,0-20.28-42.19-16-49.73,5.78-10.28,14.91.39,26.39,39.1,0,0-8.13-41.22,2.27-46.39,10.77-5.35,11.93,8.16,14.27,45.94L184,357Z"/><path class="cls-3" d="M98.09,339.92a52.36,52.36,0,0,1,9.54-13.49c-2.59-2.69-5-5-7.12-7.06A54.57,54.57,0,0,0,91,334C93.39,336.09,95.81,338.1,98.09,339.92Z"/><path class="cls-3" d="M93.49,360.9a47,47,0,0,1,3.17-17.69c-2.88-1.14-5.52-2.14-7.94-3a64.67,64.67,0,0,0-2.69,18C88.53,359.17,91.06,360.08,93.49,360.9Z"/><path class="cls-3" d="M93.88,366.91c-2.74.22-5.21.45-7.42.73a98.49,98.49,0,0,0,4.29,19.9c2.93.29,6,.43,9.1.46A75.4,75.4,0,0,1,93.88,366.91Z"/><path class="cls-3" d="M124.58,313.43a115.68,115.68,0,0,1,17-8q-.37-4.74-.8-8.65A111.44,111.44,0,0,0,123.57,303C123.8,306.63,124.17,310.23,124.58,313.43Z"/><path class="cls-3" d="M119.72,304.87a72.62,72.62,0,0,0-13.26,8.77c1.38,3.48,2.81,6.87,4.12,9.91a79.71,79.71,0,0,1,12.48-9.22Q121.35,309.17,119.72,304.87Z"/><path class="cls-3" d="M77.27,309.63c-3.24,4.15.41,10.59,6.28,17.05a53.7,53.7,0,0,1,9.3-13.91C78.38,301.6,77.27,309.63,77.27,309.63Z"/><path class="cls-3" d="M80.64,368.69c-5.32,1.35-8.09,3.64-8.46,8.14-.47,5.82,5.74,8.78,14.18,10.16A122.58,122.58,0,0,1,80.64,368.69Z"/><path class="cls-3" d="M78.67,355A63.49,63.49,0,0,1,80,337.47c-10.44-2.67-14.35-.73-14.3,6C65.68,347.51,71.38,351.53,78.67,355Z"/><path class="cls-3" d="M100,285.83c-1.53,2.72.13,10,2.89,18.1a82.2,82.2,0,0,1,13.26-7.71C109.41,281.55,103.93,278.83,100,285.83Z"/><path class="cls-3" d="M139.64,288.45c-1.9-9.94-4.92-12.92-11-9.91-3.51,1.75-4.91,7.62-5.22,14.62A113,113,0,0,1,139.64,288.45Z"/><path class="cls-3" d="M172.27,277.89a2.1,2.1,0,0,0-1.67.4c-2,1.34-7.48,7.08-7.86,8.27s.14,1,2.74-.72a62.76,62.76,0,0,0,6.08-4.87c.93-.85,1.39-1.67,1.29-2.32-.08-.5-.18-.63-.58-.76Z"/><path class="cls-3" d="M175.22,283.71c-.65-.13-1.14,0-3.83,1.09-4.44,1.78-8.76,4.12-9,4.91-.09.24-.06.26.42.32a24.88,24.88,0,0,0,5.42-.85,45.78,45.78,0,0,0,6.28-2.24c1.26-.62,1.83-1.24,1.82-2a1.27,1.27,0,0,0-1.07-1.26Z"/><path class="cls-3" d="M164.19,276.09c-.83.15-1.4,1-2.4,3.51a13.37,13.37,0,0,0-1.3,4.89c0,.87.26,1.19.68.88a15.87,15.87,0,0,0,3.08-4.41c1.63-3.06,1.79-3.88.88-4.62a1,1,0,0,0-.94-.25Z"/><path class="cls-4" d="M146.43,293.22s-21,5.15-7.68,27.77c0,0,4.06,6.46,7.37,6.35l-8.94,34.82s-10,8.81-7.81,15c0,0,51.92-14.75,53.32-20.54,0,0-2.78-7.76-8.83-9.14l-6.36-24.92S175,290.94,146.43,293.22Z"/><path class="cls-5" d="M182.69,356.59s-2.78-7.76-8.83-9.14l-1.5-5.89c-7.89,2.45-27.75,1.74-30.31,1.64l-4.87,19s-10,8.81-7.81,15C129.37,377.13,181.29,362.38,182.69,356.59Z"/><path class="cls-4" d="M143.82,336.57s-11.22,18.93-1.07,15.75a17.78,17.78,0,0,0,8-6.27s-1.31,9.17,4,8c2.29-.5,4.62-2.31,3.66-8.61,0,0,.78,9.06,6.08,6.25,1.53-.82,2.36-1.8.25-6.95,0,0,2.14,5.4,5.12,4.56,0,0,1.77-.2-.2-6.39,0,0,.81,4.39,3.65,5.16a1.24,1.24,0,0,0,1.55-1.31c-.14-1.43-.81-4-3.31-8.13"/><path class="cls-6" d="M150.73,296.2s-10.85,1.47-9,8.7c0,0,1.46,15.47,13.55,13.61,0,0,9.06-1.52,8.27-13.22C163.53,305.29,165.16,294.6,150.73,296.2Z"/><path class="cls-7" d="M159.41,302.3c.13,1.11-.37,2.08-1.11,2.16s-1.44-.75-1.57-1.86.38-2.08,1.12-2.16S159.29,301.19,159.41,302.3Z"/><path class="cls-7" d="M152.93,304.25c.37,1.06.11,2.11-.59,2.36s-1.58-.41-2-1.46-.1-2.11.6-2.36S152.56,303.2,152.93,304.25Z"/><path class="cls-8" d="M154.66,311.92c.16,1.46-1.69,2.87-4.14,3.14s-4.56-.69-4.72-2.15,1.69-2.87,4.14-3.15S154.5,310.46,154.66,311.92Z"/><path class="cls-9" d="M182.76,297.48l-19.64,3s-5.26,10.12-2,14c0,0,12.93-10.31,22.17-15.53A.81.81,0,0,0,182.76,297.48Z"/><path class="cls-9" d="M161.59,313.19A113.91,113.91,0,0,1,173.75,315a1.06,1.06,0,0,1-.2,2.1l-12,.43S159.88,316.2,161.59,313.19Z"/><path class="cls-10" d="M163.25,300.45s-10.36,9.1-6.85,22.53a2.2,2.2,0,0,0,.84,1.23,18,18,0,0,0,4.92,2.7,1.4,1.4,0,0,0,1.72-1.6C163.13,320.72,161.29,305.25,163.25,300.45Z"/><path class="cls-11" d="M139.59,280.1l-5,23.73s11.76-12.32,25.24-8.44l-18.47-15.57S140.31,278.18,139.59,280.1Z"/><path class="cls-12" d="M141.14,282.3c-2.08.75-10.15-1.12-8-3.78,0,0-.08-.51,1.51-.24a3.55,3.55,0,0,1-.55-5.07c.67-.91,3.62-1.61,4.48.58,0,0-2.14-5.34,2.76-5.34,0,0,4.73.54,1.83,6.67,0,0,4.12-1.68,2.24,2.74C145.42,277.86,142.59,281.77,141.14,282.3Z"/><path class="cls-13" d="M147.57,290.22c.15,1.3-1.19,2.51-3,2.71s-3.36-.69-3.5-2,1.19-2.51,3-2.71S147.43,288.92,147.57,290.22Z"/><path class="cls-13" d="M145.24,284.53c.06.52-.45,1-1.13,1.09a1.12,1.12,0,0,1-1.33-.82c-.06-.52.44-1,1.12-1.09A1.13,1.13,0,0,1,145.24,284.53Z"/><path class="cls-13" d="M141.09,297.23c.07.59-.71,1.16-1.73,1.27s-1.9-.27-2-.86.71-1.15,1.73-1.27S141,296.64,141.09,297.23Z"/><path class="cls-14" d="M42,303.31s-6.75-10.83-11.24-9c0,0-5.42,3.38,1.59,22.87,0,0-6.82,8.14-10,9.4a.55.55,0,0,0-.26.82c.84,1.26,3.18,3.79,8,2.93,0,0-5.66,2.95-7.18,5.41a.84.84,0,0,0,.41,1.23c1.57.62,5.34,1.76,9,.38,0,0-5.36,2.8-5.67,5.6a1.07,1.07,0,0,0,.56,1,9.19,9.19,0,0,0,6.06.95s-9.62,1.33-3.47,10.41c0,0-3.16,5.46-6.49,6.31a.68.68,0,0,0-.5.83c.48,1.75,2.2,5.95,7.43,4.83,0,0-12,8.86-4,15.28s.06,1,.06,1-2.46,1.67-1,4.14c0,0-7.52,2.23-10.81-6,0,0-4-7.67,1.93-10.57,0,0-14.09,5.54-9.26,16.1,2.19,4.8,8.79,12.88,15.13,12.26,0,0-12.76,15.16,4.78,22.81,0,0,21.52-24.73,32-28.66l29.7-17.94s-5.81-16.5-5.2-19.09c0,0,3.62-7.86-2.48-3.17,0,0,9.46-8.46-.73-8.12a5.29,5.29,0,0,0-1.73-7.81l-11-10.07S82,317.86,86,313.75c1.11-1.13,3.29-4.06,3-5.61-.4-1.87-3.22-3-7.57-1.14L70.1,309.45a1.39,1.39,0,0,1-1.69-1.17c-.25-1.72-1-4.48-3.38-5.93,0,0-1.39-15-4.69-14.78-3.14.18-4,6.35-3.84,13Z"/><path class="cls-6" d="M74.11,348.51c-5.84-2.38-17-3.09-9.09,23.49l-4.83,19.7,6.08-2.43,22.44-13.55-.48-1.39-11.3-4.69S84.2,352.62,74.11,348.51Z"/><path class="cls-15" d="M38.64,298.45l4.18,5.83s9.41,1.83,15.24-1.92a1.65,1.65,0,0,0,.43-2.4L44,280.74l-3.3.2Z"/><path class="cls-12" d="M39.3,273.27l4,3.05a.66.66,0,0,0,.8,0l2.17-1.64a.67.67,0,0,1,1,.76l-1.07,3a.69.69,0,0,0,.12.66l3.11,3.68a.66.66,0,0,1-.71,1.06l-5-1.66a.67.67,0,0,0-.8.32l-2.24,4.1a.66.66,0,0,1-1.24-.2l-.75-4.42a.67.67,0,0,0-.55-.54l-3.48-.56a.67.67,0,0,1-.07-1.3l3.33-1a.65.65,0,0,0,.48-.67l-.24-4.08A.67.67,0,0,1,39.3,273.27Z"/><path class="cls-12" d="M53.94,293.93l-3.56-4.73c-5.39,3.25-9.12,3.85-11.11,3.85L39,295.73C42.61,297.05,51,294.79,53.94,293.93Z"/><ellipse class="cls-7" cx="86.41" cy="305.8" rx="4.08" ry="3.97" transform="translate(-17.68 5.56) rotate(-3.34)"/><path class="cls-7" d="M56.57,314.44c.08,1.34-.58,2.46-1.47,2.51s-1.67-1-1.74-2.32.57-2.45,1.46-2.5S56.49,313.11,56.57,314.44Z"/><path class="cls-7" d="M66.15,310.33c.08,1.33-.58,2.45-1.47,2.5s-1.67-1-1.74-2.32.57-2.45,1.46-2.5S66.07,309,66.15,310.33Z"/><path class="cls-14" d="M68.58,336.84s14.54,1.16,18.62-.07c1.37-.41,4.82-2.94,1.39-4.55-5.07-2.36-21.33-4.74-21.33-4.74"/><path class="cls-16" d="M68.58,337.1c2.59.21,5.19.34,7.78.43,2.07.07,4.14.1,6.21,0a18.94,18.94,0,0,0,4.57-.5c1.23-.35,2.82-1.37,3.17-2.68.46-1.69-1.58-2.45-2.83-2.9a73.93,73.93,0,0,0-11.37-2.77c-2.91-.55-5.84-1.06-8.77-1.49-.37-.05-.57.45-.16.51a153.37,153.37,0,0,1,17,3.3,18.24,18.24,0,0,1,4.55,1.6c2.45,1.45-.42,3.61-2.1,4-3.18.75-6.76.47-10,.37q-4-.12-8.07-.43c-.4,0-.38.49,0,.52Z"/><path class="cls-16" d="M67.61,327.53c1,.71,10.62,7,21.49,5.11,0,0,0-.05,0-.14a3.87,3.87,0,0,0-.5-.28C84,330.06,70,327.89,67.61,327.53Z"/><path class="cls-4" d="M59.83,324.82c.09,1.47-1.84,2.78-4.29,2.92s-4.52-.93-4.61-2.4,1.84-2.78,4.3-2.92S59.75,323.35,59.83,324.82Z"/><path class="cls-17" d="M214.79,246.93s-8.57-12.35-6.79-19.28c.2-.78,1.3-4.31.56-6.83a1.45,1.45,0,0,1,1.6-1.86c5.57.54,17.73,3.46,24.68,18.13"/><path class="cls-18" d="M218,243.06a54,54,0,0,1,6.86-4.54,14.29,14.29,0,0,0-1.6-4.37c-2.37-4.22-6.22-6.57-8.61-5.23s-2.41,5.85,0,10.08A13.45,13.45,0,0,0,218,243.06Z"/><path class="cls-17" d="M293.91,293.61c-3.5-5.07-3-9.64-3.22-24.41-.19-11.78-6.62-37.42-28.44-37.56-11.95-.08-22.26,1.24-30.75,4.1s-15.19,7.27-19.89,13.35c-4,3.37-10.83,11.35-14.5,28.43l8.65,16.13a89.38,89.38,0,0,0,2.68,8.72s-11.38,32.55-.11,54.28l105.46,1.63S310.15,317.14,293.91,293.61Z"/><path class="cls-19" d="M264.37,344.46c-.15,1.06-1,8,1,11.29a1.18,1.18,0,0,0,1.95,0l4-5.57,2.89,6.45a1.19,1.19,0,0,0,1.81.45c2.07-1.61,6.09-5.27,6.54-9.67C277,342.9,269.35,343.41,264.37,344.46Z"/><path class="cls-10" d="M260.33,318.62a111,111,0,0,0,1.35,18.93,23.72,23.72,0,0,0,1.33,5.06,7.45,7.45,0,0,0,.76,1.42c.33.46.29.39.22,1a30.17,30.17,0,0,0-.18,6c.11,1.41.35,4.85,2.09,5.35,1.41.41,2.16-1.16,2.83-2.09,1-1.35,1.95-2.71,2.93-4.07l-.58.07,2.68,6c1.3,2.9,4.06-.26,5.32-1.6a15.9,15.9,0,0,0,3.1-4.51,18.54,18.54,0,0,0,.75-3,1.65,1.65,0,0,1,.27-.55,71.85,71.85,0,0,0,3.5-6.46,47,47,0,0,0,4-14.92c0-.28-.6-.21-.62,0a47.68,47.68,0,0,1-6.85,20.28,12.91,12.91,0,0,0-.87,1.35,5.19,5.19,0,0,0-.19,1.2,10,10,0,0,1-1.11,3,18,18,0,0,1-3.64,4.51,6.19,6.19,0,0,1-1.44,1.23c-1.2.51-1.33-.08-1.64-.74-.93-2-1.8-4-2.71-6-.08-.19-.49-.05-.58.07l-2.22,3.09c-.57.79-2.29,4.11-3.42,1.92a14.26,14.26,0,0,1-1.07-6.69c0-.92.07-1.84.16-2.76a5.59,5.59,0,0,0,.17-1.4c-.06-.3-.4-.59-.58-.88a8.87,8.87,0,0,1-.81-1.84,30.11,30.11,0,0,1-1.09-4.69,101.1,101.1,0,0,1-1.07-11.39c-.12-2.35-.2-4.69-.2-7,0-.23-.62-.14-.62.12Z"/><path class="cls-19" d="M209.1,348.24c.2.43.33.65.33.65-.36,4.43,2.56,8.55,4.23,10.51a1.13,1.13,0,0,0,1.86-.2l3.15-6,2.69,3.75a1.12,1.12,0,0,0,1.77.07c2-2.4,2.2-7.21,2.2-8.59C221.31,347.77,214.48,347,209.1,348.24Z"/><path class="cls-10" d="M227.06,322.8a127.06,127.06,0,0,1,.28,14.34c-.12,3-.22,6.19-1.25,9-.25.7-.89,1.33-1.07,2a7.68,7.68,0,0,0,0,1.36,24.22,24.22,0,0,1-.29,2.7c-.18,1.06-1.62,6.71-3.38,4.25l-2.37-3.3c-.13-.19-.45-.27-.57,0l-2.71,5.11a3.49,3.49,0,0,1-.43.81c-.88,1-1.67-.15-2.2-.86a17.35,17.35,0,0,1-2.82-5.3,10.7,10.7,0,0,1-.51-3.32,2.29,2.29,0,0,0-.05-.83c-.14-.47-.45-.93-.64-1.39a32.55,32.55,0,0,1-2.08-7.3,38.65,38.65,0,0,1,.36-14.46c.06-.31-.55-.45-.63-.1a37.28,37.28,0,0,0,1.85,22.17,7.8,7.8,0,0,1,.62,1.31,9.77,9.77,0,0,1,0,1.32c0,.43.09.85.16,1.28a13.92,13.92,0,0,0,1.07,3.25c.59,1.28,3.56,7.36,5.48,4.5a66.27,66.27,0,0,0,3.15-6l-.57,0,2.26,3.16c.59.82,1.44,1.72,2.51.95,1.48-1.07,1.94-3.76,2.2-5.43a24.6,24.6,0,0,0,.26-2.71,7.42,7.42,0,0,1,0-1.11c.15-.37.55-.74.74-1.12a9.54,9.54,0,0,0,.59-1.73,28,28,0,0,0,.73-4.55,94.63,94.63,0,0,0,.26-11.17c-.05-2.24-.14-4.48-.31-6.71,0-.32-.64-.45-.62-.1Z"/><path class="cls-20" d="M261.56,228.06l2.75,6.88a1.26,1.26,0,0,1-1,1.65c-4.78,1.15-20,4.46-28,2a2.1,2.1,0,0,1-1.38-2.92l14.14-28.45,4.75-.74Z"/><path class="cls-21" d="M238.43,226.72l3.48-7c8.73,2.49,14.21,2.13,17,1.54l1.34,3.28C255.54,227.29,242.83,226.93,238.43,226.72Z"/><path class="cls-12" d="M254.47,209.75l-.28-1.94,2.26,1.91a19.61,19.61,0,0,0,2.89,2.13c.69.24,1.08,0,.85-.57a43.48,43.48,0,0,0-4.47-5.65,5.77,5.77,0,0,1-1-1.09,11.23,11.23,0,0,1,1.47.62c3.53,1.69,7.94,3.46,8.31,3.34.62-.19.23-.9-.83-1.52-.51-.29-2.61-1.27-4.7-2.17s-3.55-1.63-3.26-1.62c5.36.13,6.25,0,6.56-.7s-.55-1-3.07-1.35l-2.39-.33,1.08-.51,2.93-1.34a11.93,11.93,0,0,0,3.54-2.05c.21-.24.18-.33-.18-.52s-2.33.27-5.05,1.5a10.76,10.76,0,0,1-2,.76c-.08,0,.39-.56,1.05-1.17,3-2.79,2.84-4-.27-2.1-.83.52-2.41,1.69-5,3.75-.17.13.1-.64.59-1.71,2.12-4.64,2.54-6.34,1.46-6-.45.15-2.45,4-2.72,5.25s-.41.91-.57-.69a12.1,12.1,0,0,0-.44-2.23c-.35-.89-1.37-1.52-1.86-1.15s-.63,2.46-.36,3.66c.11.51.15.89.07.86a29,29,0,0,1-1.59-2.75c-1.54-2.82-2.13-3.44-2.48-2.6h0a5.08,5.08,0,0,0,.46,2.25l.63,1.82-.77-.5c-1-.63-2-.45-2.08.34,0,.41.2.84.94,1.76l1,1.22-2.81-1.1c-3-1.17-4.06-1.41-4.55-1.05s-.05.85,2.54,1.79c1.44.52,3.32,1.22,4.18,1.54l1.55.6-1.82,0c-2.45,0-4.61.16-5,.45s0,1,.86,1.22a29.1,29.1,0,0,0,3.33.41l2.5.21-1.22.51c-.66.29-2.37,1-3.78,1.59-3.15,1.3-3.92,1.82-3.57,2.39.21.35.42.36,1.64,0a53,53,0,0,0,6.85-2.78c.84-.52.18.18-1.8,1.9-2.27,2-3.23,3.13-3,3.65.43,1.06,1.89.65,4.15-1.16a12.12,12.12,0,0,1,1.77-1.27l.89-.43-.53,1.66Z"/><path class="cls-10" d="M238.31,305.9c4.75,3.12,11,2.21,15.35-1.16.13-.1-.86.11-1.07.28a10.61,10.61,0,0,1-9.73,1.88,12,12,0,0,1-3.35-1.43c-.29-.19-1.11.49-1.2.43Z"/><path class="cls-19" d="M246.15,256.78c-1.15,2.8.46,5.41,3.22,6.31,3.46,1.13,8.27.43,10.2-2.94.25-.43-.83-1.11-1.08-.69-1.52,2.68-4.86,3.46-7.75,3.11-1.82-.22-3.62-1-3.81-3a4.52,4.52,0,0,1,.3-2.09c.19-.48-.9-1.12-1.08-.69Z"/><path class="cls-19" d="M228,254.84c.81,1.91-1.64,3.14-3.14,3.51-2.85.71-6,.86-7.65-2.06-.3-.54-1.36-.44-.94.29,1.93,3.39,5.52,3.54,8.92,2.82,2.06-.44,5-2,3.9-4.59-.22-.51-1.39-.69-1.09,0Z"/><path class="cls-8" d="M270.13,273.09c.13,2.43-3.06,4.58-7.13,4.79s-7.46-1.58-7.59-4,3.07-4.57,7.13-4.79S270,270.66,270.13,273.09Z"/><path class="cls-20" d="M251.12,292.13s-4.83-1.07-4.3,2.42c0,0-4.41,2.25-1.61,2.95,1.08.27,6.71,1.07,10.2-3.76,0,0,3.75-4.82,3.22-7.24C258.63,286.5,253,283.28,251.12,292.13Z"/><path class="cls-19" d="M256.39,282.3a15.17,15.17,0,0,1-1,6.36c-1.83,4.77-6.14,7.14-11.12,7.38-.64,0-1.07.82-.22.78,5.16-.24,9.94-2.38,12.2-7.24a15.5,15.5,0,0,0,1.42-7.47c0-.51-1.3-.34-1.26.19Z"/><path class="cls-19" d="M255,282.08c-.23.05.12,0,.21,0a3.71,3.71,0,0,1,.81.08,3.81,3.81,0,0,1,2.26,1.85.58.58,0,1,0,1-.63,4.71,4.71,0,0,0-4.76-2.38c-.79.17-.2,1.24.5,1.09Z"/><path class="cls-20" d="M262.38,294c0,.74.21,1.61-.53,1.61s-2.69-.6-2.69-1.34.87-1.88,1.61-1.88A1.84,1.84,0,0,1,262.38,294Z"/><path class="cls-20" d="M261.85,289.45c0,.3-.51.54-.81.54s-1.07-.24-1.07-.54.78-.53,1.07-.53S261.85,289.16,261.85,289.45Z"/><path class="cls-10" d="M211,268.46c-5.92.79-19.05,5.48-14,19.4,1.48,4.07,5.94,8.1,15.19,4.24,0,0,5.13-1.31,8,1.35,2.1,1.92,12.82,3.45,16.36-6.87C239.16,279.17,231.89,265.7,211,268.46Z"/><path class="cls-19" d="M224.7,283.66c.26,1.76-.58,3.34-1.86,3.53s-2.54-1.09-2.8-2.85.58-3.35,1.87-3.53S224.45,281.9,224.7,283.66Z"/><path class="cls-19" d="M205.84,283c.26,1.76-.57,3.34-1.86,3.53s-2.54-1.09-2.8-2.85.58-3.34,1.87-3.53S205.59,281.28,205.84,283Z"/><path class="cls-17" d="M263.93,246.62s-6.22-6.82,1.64-18.34c3.59-5.26,8.57-12.73,26.87-12.62,1.56,0,2.61,1.3,2,2.5a8.87,8.87,0,0,1-2.39,3.06c-4.26,3.55,5.52,14.62-15,30.11"/><path class="cls-18" d="M283.38,236.56c-2.53,5.95-7,9.89-9.92,8.79s-3.28-6.81-.75-12.77,7-9.9,9.92-8.8S285.92,230.6,283.38,236.56Z"/><path class="cls-22" d="M384.69,327.73s-.77-7.19,5.19-11.54c5.08-3.7,22.1-7.41,24.41,5.94.49,2.81-.45,10.41-.49,13.88-.1,7.27,2.32,19.83,7.48,28.52,3,5.1,11.43,20.75,11.43,20.75s-30.5,9.12-42-12.86c0,0,2.28-4.54,5.31-11.09,2.72-5.88,4.53-14.68-3.23-25.72C392.82,335.61,385.15,331.89,384.69,327.73Z"/><path class="cls-23" d="M418.83,359.68c-4.62,1.74-13.23,3.94-22.48,1l-.3.67c-3,6.55-5.31,11.09-5.31,11.09,11.47,22,42,12.86,42,12.86s-8.4-15.65-11.43-20.75A43.11,43.11,0,0,1,418.83,359.68Z"/><path class="cls-13" d="M420.2,362.57a53.94,53.94,0,0,1-3.67-9.29c-7.12,3.79-14.29,2.66-18.42,1.42a25.06,25.06,0,0,1-2.06,6.63l-1.16,2.5C404.44,367.46,414.22,365,420.2,362.57Z"/><path class="cls-4" d="M410.18,309.94l1.13,5.36a1,1,0,0,1-.8,1.14c-3.27.44-13.63,1.57-18.64-1a1.63,1.63,0,0,1-.62-2.29l12.13-19.93,3.21-.14Z"/><path class="cls-24" d="M407.87,285.54l-3.58,3.33a.63.63,0,0,1-.77.08l-2.26-1.38a.65.65,0,0,0-.92.83l1.32,2.76a.66.66,0,0,1-.05.65L399,295.66a.65.65,0,0,0,.79,1l4.64-2.08a.66.66,0,0,1,.8.22l2.56,3.75a.65.65,0,0,0,1.18-.32l.3-4.33a.65.65,0,0,1,.48-.58l3.3-.87a.65.65,0,0,0-.05-1.26l-3.31-.6a.63.63,0,0,1-.53-.61l-.16-4A.65.65,0,0,0,407.87,285.54Z"/><path class="cls-25" d="M395.05,306.92l3-4.91c5.51,2.62,9.16,2.83,11.09,2.64l.56,2.56C406.29,308.84,397.94,307.46,395.05,306.92Z"/><path class="cls-7" d="M390.7,323.42c0,1.12-.54,2-1.29,2.06s-1.37-.86-1.4-2,.54-2,1.28-2.06S390.67,322.31,390.7,323.42Z"/><path class="cls-7" d="M397,323.34c.29,1.08-.06,2.11-.78,2.3s-1.54-.53-1.82-1.61.06-2.11.78-2.3S396.72,322.26,397,323.34Z"/><path class="cls-8" d="M404.71,329.1c0,1.4-1.82,2.59-4.16,2.66s-4.27-1-4.31-2.4,1.82-2.59,4.16-2.66S404.67,327.71,404.71,329.1Z"/><path class="cls-21" d="M389.14,333.35l-8.3,7.92a.56.56,0,0,0,.09.88c1.05.67,3.52,1.67,6.87-.65,1.88-1.29,6-6.71,6-6.71S394.05,331.51,389.14,333.35Z"/><path class="cls-26" d="M387.2,324.84s-11.56,6.59-15.74,8.25a1.14,1.14,0,0,0-.43,1.84c1.63,1.72,5.91,3.85,16.58-.18a11.29,11.29,0,0,1,6.2,0S397.37,325.44,387.2,324.84Z"/><path class="cls-27" d="M443.13,350.31c-1.12.34-2.78,2.57-3.77,3.21-2.83,1.82-7.57,2.75-10.55,4.31-1.24.66-4,4.24,1.58,5.41a22.58,22.58,0,0,1,10.32,5s-4.1.15-4.7,2c-.23.71,1.09,1.69,3.12,1.78l6,.14s9.92,3.29,14.12-4.74c1.65-3.15,4.05-8.59-1.53-14.19C455.05,350.61,451.25,347.83,443.13,350.31Z"/><path class="cls-27" d="M445.61,370.93s-5.32,12.68,3.3,19.52l15.8,16.74,17.66.25s.17-41.33-24.17-47.75C458.2,359.69,445.53,363.32,445.61,370.93Z"/><path class="cls-7" d="M424.57,359.23c0,1.25,1.44,1.89,2.73,1.89s2.74-1,2.74-2.29-1.46-2.24-2.74-2.24A3,3,0,0,0,424.57,359.23Z"/><path class="cls-7" d="M445.78,357.86c0,1,.58,1.85,1.3,1.85s1.31-.83,1.31-1.85-.59-1.84-1.31-1.84S445.78,356.84,445.78,357.86Z"/><path class="cls-7" d="M439.52,355.83c0,1,.59,1.85,1.31,1.85s1.3-.83,1.3-1.85-.58-1.84-1.3-1.84S439.53,354.81,439.52,355.83Z"/><path class="cls-4" d="M444.77,363.2c0,.84,1.14,1.52,2.54,1.52s2.55-.68,2.55-1.52-1.14-1.52-2.54-1.53S444.77,362.36,444.77,363.2Z"/><path class="cls-28" d="M457.66,347s2.54-3.22,3,.84c0,0,3.34-1.18,2.83,2.16,0,0-.32,5.76-1.86,4C461,353.28,456.35,351.43,457.66,347Z"/><path class="cls-29" d="M453.34,335.84l-10.29,14.77s8.94,5.24,18.12,2.74l-6.39-17.14S454.54,334.61,453.34,335.84Z"/><path class="cls-13" d="M455.82,349.71c-.11.69-1,1.11-1.9,1s-1.59-.84-1.48-1.52a1.54,1.54,0,0,1,1.9-.95C455.27,348.35,455.94,349,455.82,349.71Z"/><path class="cls-13" d="M456.83,345c-.6,1.06-2.25,1.27-3.68.46s-2.11-2.32-1.52-3.38,2.25-1.27,3.68-.46S457.43,343.94,456.83,345Z"/><path class="cls-13" d="M447.46,348.56c1.65.07,3-.88,3.09-2.12s-1.25-2.3-2.9-2.37h0l-2.46,3.53A3.41,3.41,0,0,0,447.46,348.56Z"/><path class="cls-30" d="M453.8,338c-1.85-.12-7.41-4.25-4.87-5.57,0,0,.11-.41,1.24.32a3,3,0,0,1,1.28-4.07c.82-.46,3.31,0,3.24,1.95,0,0,.14-4.81,3.9-3.17,0,0,3.44,2-.83,5.73,0,0,3.72.08.8,2.85C458.56,336.08,455.08,338.13,453.8,338Z"/><path class="cls-27" d="M452.63,354.31s2.77-6.76,7.23-4.28c0,0,4.28,1.8.06,7.72"/><path class="cls-28" d="M461.47,353.85a2.29,2.29,0,0,1,2-3.06,2.32,2.32,0,0,1,2.22,3,4.94,4.94,0,0,1,2.55-1,.9.9,0,0,1,.83.24.84.84,0,0,1,0,.64c-.22,1.13-.44,2.26-.65,3.38.72-.83,2.32-.32,2.76.68a3.61,3.61,0,0,1-.46,3.12,3.07,3.07,0,0,1,3.58-.17,2.68,2.68,0,0,1,.91,3.29,1.49,1.49,0,0,1,2.24.48,1.9,1.9,0,0,1-.76,2.26,2.51,2.51,0,0,1,3.16,1.87,2.41,2.41,0,0,1-2.61,2.49c1.65-.44,3.69.16,4.4,1.64a2.4,2.4,0,0,1-2.31,3.32,1.43,1.43,0,0,1,1.73,1.11,1.17,1.17,0,0,1-1.58,1.08,8.59,8.59,0,0,1,2.95.45,2.61,2.61,0,0,1,1.76,2.11c.07,1.31-1.25,2.28-2.51,2.82a2.35,2.35,0,0,1,2.73,1.63,2.2,2.2,0,0,1-1.81,2.51,3.82,3.82,0,0,1,3.18,3,3.59,3.59,0,0,1-2.05,3.74,4.32,4.32,0,0,1,2.1,6.53,2.48,2.48,0,0,1,1.37,2.42,2.52,2.52,0,0,1-1.86,2.09c1.56,1.72.7,4.6-1.24,5.91s-4.53,1.4-6.91,1.09a7,7,0,0,0-1.65-.1,7.8,7.8,0,0,0-1.44.37,12.83,12.83,0,0,1-9.95-1,8.07,8.07,0,0,1-4.13-4.95,4.85,4.85,0,0,1,2.54-5.49,3.53,3.53,0,0,1-.6-3.85,3.89,3.89,0,0,1,3.46-2.09,2.85,2.85,0,0,1-2-2.6,2.82,2.82,0,0,1,2-2.59,2.08,2.08,0,0,1-1.75-2.6,5.07,5.07,0,0,1,2.32-2.66,2.47,2.47,0,0,1-1.91-2.45,2.76,2.76,0,0,1,2-2.4,3,3,0,0,1-3.05-1.72,2.69,2.69,0,0,1,1.05-3.19,2,2,0,0,1-2.3-1.71,2.66,2.66,0,0,1,1.59-2.51,3.74,3.74,0,0,1-3.93-1.75,3.33,3.33,0,0,1,.75-4,3.31,3.31,0,0,1-2.24.22,2,2,0,0,1-1-2.5,6.15,6.15,0,0,1,1.8-2.34,1.44,1.44,0,0,1-2-1.18,2.33,2.33,0,0,1,1.47-2.06,1.94,1.94,0,0,1-.79-2.94,3.37,3.37,0,0,1,3.33-1Z"/><path class="cls-27" d="M466.47,368.32l2.45-.69c.51-.14-.2-1.18-.66-1.05l-2.45.68c-.51.14.2,1.18.66,1.06Z"/><path class="cls-27" d="M474,393.7l3.72-.43c.29,0,0-.33-.06-.42a1.19,1.19,0,0,0-.83-.27l-3.72.42c-.3,0,0,.34.06.42a1.15,1.15,0,0,0,.83.28Z"/><path class="cls-27" d="M472.42,384.87a18.51,18.51,0,0,0,2.78-.45c.78-.2.17-1.23-.49-1.06a16,16,0,0,1-2.48.41c-.82.07-.53,1.16.19,1.1Z"/><path class="cls-27" d="M473.51,376.68a5.54,5.54,0,0,0,2.43-1.16c.51-.43-.64-.9-1-.58a4.51,4.51,0,0,1-1.93,1c-.24.05-.46.23-.32.49a.88.88,0,0,0,.84.29Z"/><path class="cls-27" d="M474.76,401a3.08,3.08,0,0,1,1.85.05c.22.07.57-.16.74-.27s.48-.34.29-.4a3.7,3.7,0,0,0-2.21,0,1.62,1.62,0,0,0-.79.43c-.14.15-.13.29.12.22Z"/><path class="cls-27" d="M482.26,397.78a8.4,8.4,0,0,0,2.9.43c.54,0-.23-1-.61-1a7.58,7.58,0,0,1-2.67-.38c-.26-.09-.34.08-.28.3a1.1,1.1,0,0,0,.66.61Z"/><path class="cls-27" d="M477.36,383.61a9.12,9.12,0,0,0,2.28,1.12.89.89,0,0,0,.85-.21c.16-.15.3-.5,0-.59a8.31,8.31,0,0,1-2.08-1,.76.76,0,0,0-.83.05c-.15.1-.47.46-.22.63Z"/><path class="cls-27" d="M472.72,368.74a4.4,4.4,0,0,0,1.65-1.07c.09-.09-.41-.09-.45-.09s-.64,0-.78.1a4.24,4.24,0,0,1-1.52,1c-.24.08.18.11.23.11a2.55,2.55,0,0,0,.87-.07Z"/><path class="cls-27" d="M467.19,360.93l1.24.15a.41.41,0,0,0,.44-.52.8.8,0,0,0-.7-.58l-1.24-.15a.41.41,0,0,0-.43.52.79.79,0,0,0,.69.58Z"/><path class="cls-28" d="M444.9,349.32a2.62,2.62,0,0,0-1.71-.81,1.07,1.07,0,0,0-1.11,1.65,1.34,1.34,0,0,0,.95.64c.15,0,.32,0,.41.17a.8.8,0,0,1,.09.41,1.66,1.66,0,0,0,2.09,1.51,1.72,1.72,0,0,1,.43-.16c.3,0,.56.21.8.42a3.25,3.25,0,0,0,2.16,1,2.13,2.13,0,0,0,1.16-.46c.1-.08.21-.18.33-.14s.15.16.21.26a1.38,1.38,0,0,0,1.1.53,1.82,1.82,0,0,0,.77,0,.74.74,0,0,0,.53-.56.87.87,0,0,0-.27-.78,2,2,0,0,0-.69-.39,25.92,25.92,0,0,0-3.17-1,2.08,2.08,0,0,1-1.28-.65c-.13-.17-.22-.37-.34-.54a1,1,0,0,0-1.16-.28.3.3,0,0,1-.22.06c-.08,0-.12-.11-.17-.19a1.2,1.2,0,0,0-.79-.57"/><rect class="cls-31" x="0.54" y="429.13" width="499.46" height="71.49"/><path class="cls-13" d="M500,424.39c0,32.12-120.48,48.35-249.1,48.35S0,457.87,0,425.75s123.9-71.16,252.52-71.16S500,392.26,500,424.39Z"/><path class="cls-29" d="M285.43,385.13c0-3.94-5.47-7.13-12.22-7.13-5.15,0-9.55,1.86-11.35,4.48-2.5-.14-4.58.58-5.67,2.18a4.77,4.77,0,0,0-.67,1.67c-2.7-1.88-5.59-2.41-7.67-1.1a4.89,4.89,0,0,0-1.88,2.25,7,7,0,0,0-6-3.1c-2.81.22-5.11,2.53-6.24,5.8-1.2-2.86-3.35-4.83-5.94-5a7,7,0,0,0-6,3.1,4.92,4.92,0,0,0-1.88-2.26c-2.08-1.31-5-.78-7.67,1.11a4.46,4.46,0,0,0-.68-1.67c-1.08-1.61-3.16-2.32-5.66-2.19-1.8-2.62-6.2-4.48-11.35-4.48-6.75,0-12.22,3.2-12.22,7.14,0,3.32,3.89,6.11,9.17,6.9-1.16,2.35-1.33,4.64-.21,6.3,2.2,3.26,8.5,2.85,14.09-.9-.44,3.13.35,5.85,2.37,7.12,3.2,2,8.32-.33,11.7-5.24.91,4,3.43,6.88,6.61,7.13,3.43.27,6.58-2.62,8-6.88,1.5,3.84,4.48,6.37,7.7,6.11s5.7-3.16,6.61-7.12c3.38,4.91,8.5,7.25,11.7,5.23,2-1.27,2.81-4,2.37-7.12,5.59,3.76,11.89,4.16,14.09.91,1.12-1.66.95-3.95-.21-6.3C281.54,391.25,285.43,388.46,285.43,385.13Z"/><path class="cls-25" d="M271.48,386.22c.11-2.14-3.32-3.32-6.23-4-6-1.45-12.9-1.8-19.34-2.07-8.4-.34-16.87-.37-25.27-.05a141.38,141.38,0,0,0-21.15,2.05c-2.9.55-7.77,1.54-8.46,3.64s3.61,3.55,6.12,4.32a100.7,100.7,0,0,0,19.14,3.26,174.33,174.33,0,0,0,23.65.64,111.6,111.6,0,0,0,22.79-3c3.25-.84,8.25-2.26,8.74-4.73"/><path class="cls-32" d="M225.59,335.08s6.81,8.31,12.95,8.09c4.88-.17,10.05.87,12.9,5.16,1.15,1.74,2.93,5.24,4.33,7.13.86,1.17,3.64,2.71,5.35,2,1.06-.42,3.05-.51,2,4.07,0,0-1.52,5.61,3.57,2.8l1,3.57-5.6,7.13s-5.61.26-6.63-.25-8.15-3.31-8.4-3.57-30.82-16.05-30.57-16.56S225.59,335.08,225.59,335.08Z"/><path class="cls-33" d="M189.8,365.9,194.41,383a6.05,6.05,0,0,0,3.57,4,75,75,0,0,0,29.26,4.83c9.83-.22,30.54-.68,39.22-7.62a6,6,0,0,0,2.21-4.21l1.11-14.15s-2-3.31-3.57-1l-3.7,7.62a1.5,1.5,0,0,1-2.75-.59l-.61-6.51a5.6,5.6,0,0,0-3.71-4.77l-2.47-.88a2.93,2.93,0,0,1-2-2.58c-.16-2.49-1.19-6.58-8-6l-23.94,1.78-18.85-.25S187.25,362.08,189.8,365.9Z"/><path class="cls-29" d="M190.67,358.19q1.68,2.73,3.35,5.48c1.22,2,2.33,4.21,4.13,5.74a8.11,8.11,0,0,0,9.27,1c2.3-1.3,3.49-3.55,4.79-5.74l3.85-6.48c.22-.38-.57-1.36-.82-.93l-3,5a30.53,30.53,0,0,1-3.44,5.38,7.6,7.6,0,0,1-9.62,1.53c-2.08-1.29-3.19-3.59-4.43-5.61l-3.54-5.79c-.4-.66-.95-.3-.55.36Z"/><path class="cls-29" d="M218.18,358.19l3.16,5.16a29.32,29.32,0,0,0,3.61,5.39,8.31,8.31,0,0,0,8.65,2.3c2.61-.91,4.13-3,5.47-5.26l3.61-6.16c.22-.38-.57-1.36-.82-.93-1,1.61-1.89,3.23-2.84,4.85-1.16,2-2.19,4.08-4.13,5.42a7.46,7.46,0,0,1-9.35-.61c-1.49-1.38-2.48-3.43-3.52-5.15s-2.2-3.58-3.29-5.37c-.4-.66-.95-.3-.55.36Z"/><path class="cls-29" d="M244,363.69c1.16,2,2.19,4.24,4,5.79a7.28,7.28,0,0,0,8.89.8,9.13,9.13,0,0,0,2.52-2.59l-.18-1.88a15.77,15.77,0,0,1-1.07,1.59c-2.26,2.86-6.22,3.93-9.34,1.78-1.91-1.32-2.92-3.58-4.05-5.54l-3.33-5.81c-.39-.67-.93-.3-.55.36Z"/><path class="cls-12" d="M206,371.42c.13,1.25-.54,3.26-1.73,3.38s-2.45-1.7-2.58-2.95.77-3.29,2-3.4S205.84,370.17,206,371.42Z"/><path class="cls-12" d="M233.73,371.42c.12,1.25-.54,3.26-1.73,3.38s-2.46-1.7-2.58-2.95.76-3.29,2-3.4S233.6,370.17,233.73,371.42Z"/><path class="cls-12" d="M255.11,372c-.19,1.24-1.33,3-2.51,2.84s-2-2.25-1.77-3.49,1.55-3,2.73-2.81S255.3,370.71,255.11,372Z"/><path class="cls-34" d="M277.27,367A6.25,6.25,0,0,0,275,368.8a.85.85,0,0,0-.23.5.62.62,0,0,0,.52.55,1.83,1.83,0,0,0,.8-.08l.73-.19c.77-.19,1.67-.5,1.88-1.27a1,1,0,0,0-1.42-1.3Z"/><path class="cls-32" d="M284.32,358.81a6.3,6.3,0,0,0-2.27,1.79.84.84,0,0,0-.24.5.61.61,0,0,0,.52.54,1.73,1.73,0,0,0,.81-.08l.72-.18c.78-.2,1.67-.51,1.89-1.28a1,1,0,0,0-1.43-1.29Z"/><path class="cls-34" d="M275.12,361.59a1.78,1.78,0,0,0-.8.4.58.58,0,0,0,0,.8.84.84,0,0,0,.41.14c.37.05.74.08,1.12.1a1,1,0,0,0,.82-.22.68.68,0,0,0-.06-.85,1.6,1.6,0,0,0-.8-.45C275.31,361.37,275.12,361.59,275.12,361.59Z"/><path class="cls-34" d="M269,357.5a.78.78,0,0,0,.32,1,2,2,0,0,0,1.12.22.89.89,0,0,0,.64-.19.61.61,0,0,0-.08-.84,1.39,1.39,0,0,0-.86-.33,4.43,4.43,0,0,0-1.31.08"/><path class="cls-20" d="M191.33,329.22s-6.3-.73-5.1,13.76c.77,9.17-4.07,22.67,3.06,25.21.68.25,1.22-3.21,2.29-1.78,3.06,4.08,4.46-.64,6.37-5.6,0,0,4.07-6.12,8.15-4.33,0,0,5.09-1.28,3.82,12.48,0,0-1.27,13.24,10.7,12.73,0,0,8.15-1.27,6.37-12.22,0,0-2-13,2.54-13.5,0,0,4.59-.77,6.12,4.58,0,0,2,7.39,7.13,4.33s-.87-3.11-.77-10.19c0-.81,1.28-2,2.3-2.29s-1-1.25-1.53-1.27c-3.62-.16-11.72,3.56-12.48-7.39,0,0-.26-5.3-3.82-5.6-3.06-.26-3.09.73-6.88,5.86-1.09,1.47-2.25-.3-4.08-5.61-.72-2.1-5.24-2.91-10.18-.25C201.45,340.23,191.07,342.47,191.33,329.22Z"/><path class="cls-34" d="M207.37,325.91s-22.79-1.4-19,8.54c0,0,2.67,11.33,21,3.69,0,0,3.88-3.24,8.44,6.15,0,0,4.34,4.8,5.57-4.62.17-1.3,5.38.39,5.09-1C227.66,334.42,219,326.49,207.37,325.91Z"/><path class="cls-35" d="M215.25,333.71c0,.63-1.81,1.14-4,1.14s-4.05-.51-4.05-1.14,1.81-1.14,4.05-1.14S215.25,333.08,215.25,333.71Z"/><path class="cls-29" d="M205.91,315.79l2.55-1.8a.47.47,0,0,1,.71.22c1,2.51,4.7,12.76,4.05,18.78a.81.81,0,0,1-.56.68l-2.33.78a.83.83,0,0,1-1.09-.68c-.39-3.2-1.7-13.08-3.49-17.41A.47.47,0,0,1,205.91,315.79Z"/><path class="cls-12" d="M208.44,310.54a2.63,2.63,0,1,1-5.14,1.14c-.31-1.42-.61-5.79.8-6.1S208.12,309.13,208.44,310.54Z"/><path class="cls-12" d="M207,320.61c.18.76.35,1.55.52,2.36a8.22,8.22,0,0,0,3.75-2.47c-.48-1.63-1-3.11-1.39-4.27A9.47,9.47,0,0,1,207,320.61Z"/><path class="cls-12" d="M208.59,329a7.79,7.79,0,0,0,4.38-1.35c-.19-1.22-.45-2.47-.74-3.69a8.3,8.3,0,0,1-4,2.76C208.36,327.51,208.48,328.28,208.59,329Z"/><path class="cls-36" d="M206.85,312.88a4.51,4.51,0,0,1,.44,2.38"/><path class="cls-19" d="M192.58,360l2.46-.68c.51-.14-.21-1.18-.66-1.06l-2.46.69c-.51.14.21,1.17.66,1.05Z"/><path class="cls-19" d="M208.21,348.61l3.72-.43c.79-.09.62-1-.16-.88l-3.72.43c-.78.09-.61,1,.16.88Z"/><path class="cls-19" d="M216.45,354.56a17.63,17.63,0,0,0,2.79-.45c.78-.2.16-1.23-.5-1.06a15.84,15.84,0,0,1-2.48.41c-.82.07-.52,1.16.19,1.1Z"/><path class="cls-19" d="M190,346.92a5.49,5.49,0,0,0,2.43-1.16c.51-.43-.64-.9-1-.58a4.47,4.47,0,0,1-1.92,1c-.25.05-.47.23-.32.49a.85.85,0,0,0,.83.29Z"/><path class="cls-19" d="M213.68,375.84a3.07,3.07,0,0,1,1.85.05c.22.07.57-.16.74-.27s.48-.34.29-.4a3.78,3.78,0,0,0-2.21,0,1.72,1.72,0,0,0-.79.44c-.14.15-.12.29.12.22Z"/><path class="cls-19" d="M236.44,356a8.37,8.37,0,0,0,2.9.43c.54,0-.23-1-.61-1a7.79,7.79,0,0,1-2.67-.39c-.26-.08-.35.08-.28.31a1.14,1.14,0,0,0,.66.61Z"/><path class="cls-19" d="M218.75,367.57a9.48,9.48,0,0,0,2.28,1.12.87.87,0,0,0,.85-.22c.15-.14.3-.49,0-.59a8,8,0,0,1-2.08-1,.76.76,0,0,0-.83.05c-.15.1-.47.46-.22.63Z"/><path class="cls-19" d="M214,361.07a4.52,4.52,0,0,0,1.65-1.07c.09-.09-.41-.09-.45-.09s-.64,0-.78.1a4.09,4.09,0,0,1-1.52,1c-.24.09.18.12.23.12a2.53,2.53,0,0,0,.87-.07Z"/><path class="cls-19" d="M199.05,350.26l1.23.15a.41.41,0,0,0,.44-.52.79.79,0,0,0-.69-.58l-1.24-.15a.41.41,0,0,0-.44.52.8.8,0,0,0,.7.58Z"/><path class="cls-14" d="M83.63,358.16l10.29,16.6s5.06,1.08,5.14,5.72a1.83,1.83,0,0,1-1.16,1.62,36.32,36.32,0,0,1-5.43,2.49,23,23,0,0,1-4.75.31,6.82,6.82,0,0,1-2.81-1.53c-2.38-2.09-6.07-10.07-8.15-13.24"/><path class="cls-16" d="M83.35,358.32l9.56,15.41a3.9,3.9,0,0,0,1,1.35,10.37,10.37,0,0,0,1.26.43,6.76,6.76,0,0,1,2.45,1.78c.89,1.07,1.85,3.27.47,4.36a19.9,19.9,0,0,1-3.91,2c-2.37,1.09-5.89,1.64-8.15.16s-3.55-4.21-4.82-6.48c-1.37-2.44-2.61-5-4.14-7.33-.22-.34-.77,0-.55.32,1.5,2.31,2.71,4.79,4,7.18,1.17,2.07,2.35,4.53,4.16,6.13a6.15,6.15,0,0,0,3,1.61A16.44,16.44,0,0,0,92,385a11.78,11.78,0,0,0,3.37-1.28c1.08-.53,2.82-1.08,3.56-2.06,1.33-1.74-.42-4.53-1.82-5.66A8.45,8.45,0,0,0,95,374.76a6.3,6.3,0,0,0-.77-.25c-.27-.07-.12,0,0,.07a16.73,16.73,0,0,1-1.64-2.65l-3.22-5.2L83.9,358a.32.32,0,0,0-.55.32Z"/><path class="cls-14" d="M62.49,364.54l13,21.13s6,.21,7,4.77a1.85,1.85,0,0,1-.84,1.95,42.65,42.65,0,0,1-5.9,3.21,36.29,36.29,0,0,1-5.78.9,4.4,4.4,0,0,1-2.54-.5c-3.14-1.67-15.17-6.28-18.17-9"/><path class="cls-16" d="M62.22,364.7,74.1,384c.33.53.75,1.69,1.35,2a8.9,8.9,0,0,0,1.74.26,7.92,7.92,0,0,1,3.42,1.63,5,5,0,0,1,1.23,1.62,2.55,2.55,0,0,1,.28,1.66c-.17.75-.77,1.05-1.37,1.42a41,41,0,0,1-4.49,2.49,17.28,17.28,0,0,1-5,1,7.46,7.46,0,0,1-2.94,0,12.86,12.86,0,0,1-1.81-.84c-3-1.38-6-2.62-9-4-2.71-1.24-5.83-2.47-8.08-4.48-.3-.27-.76.18-.45.45,2.07,1.85,4.84,3,7.32,4.17,2.92,1.36,5.9,2.61,8.84,3.93a14.68,14.68,0,0,0,3.6,1.5,18.34,18.34,0,0,0,5.41-.5,12.66,12.66,0,0,0,4.11-1.56c.84-.46,1.66-.94,2.48-1.43A4.8,4.8,0,0,0,82.5,392c1.49-2.32-1.59-5-3.47-5.81a10.86,10.86,0,0,0-2.91-.76,4.34,4.34,0,0,1-.62-.06c.38.1.22.24.14,0a7.49,7.49,0,0,0-.87-1.43l-1.47-2.39-4-6.55q-3.26-5.28-6.5-10.56c-.22-.35-.77,0-.55.32Z"/><path class="cls-27" d="M444.15,376.57l-4.88,7.31s-2.34.5-2.38,2.65a.82.82,0,0,0,.54.75,18.14,18.14,0,0,0,2.51,1.16,10.71,10.71,0,0,0,2.21.14,3.27,3.27,0,0,0,1.3-.71,30.92,30.92,0,0,0,4.32-4.71"/><path class="cls-37" d="M443.87,376.41q-1.64,2.44-3.26,4.9a25.34,25.34,0,0,1-1.53,2.29c-.13.14-.11.1.09,0-.1.05-.28.08-.39.12a3.45,3.45,0,0,0-1.19.68c-.75.65-1.49,2.09-.66,2.95a6.9,6.9,0,0,0,2.1,1.1,5.36,5.36,0,0,0,1.77.44,4.15,4.15,0,0,0,3.7-1.54,26.53,26.53,0,0,0,3.55-4c.23-.34-.32-.66-.55-.32a25.9,25.9,0,0,1-3.21,3.65,7.32,7.32,0,0,1-1.62,1.38,4.32,4.32,0,0,1-2.64.1,9.72,9.72,0,0,1-1.92-.86c-1.13-.58-.93-1.72-.07-2.44.45-.38,1.09-.43,1.51-.79a6,6,0,0,0,.76-1.14c.56-.84,1.12-1.68,1.67-2.52q1.23-1.81,2.44-3.65c.23-.34-.32-.66-.55-.32Z"/><path class="cls-27" d="M451.92,383l-1.69,6.87s-2.69.73-2.66,2.9a.86.86,0,0,0,.58.79,20.87,20.87,0,0,0,3,.83,17.2,17.2,0,0,0,2.7-.21,2,2,0,0,0,1.1-.49c1.24-1.08,4.84-6.14,5.9-7.7"/><path class="cls-37" d="M451.62,382.87c-.4,1.63-.8,3.25-1.21,4.88a13.47,13.47,0,0,1-.48,2s.33-.24.1-.16l-.42.16a4.93,4.93,0,0,0-1.17.69,2.88,2.88,0,0,0-1.19,2.32c.09,1.21,1.62,1.37,2.54,1.63a8.61,8.61,0,0,0,4.07.1,3.94,3.94,0,0,0,2.33-1.67c1.77-2.12,3.39-4.4,4.95-6.68.23-.34-.32-.66-.55-.33-.84,1.24-1.71,2.45-2.6,3.65a27,27,0,0,1-3,3.79c-1.41,1.32-4.34.88-6,.23-2.39-.95.05-2.93,1.36-3.31a.29.29,0,0,0,.22-.22c.57-2.29,1.13-4.58,1.7-6.88.1-.39-.52-.56-.61-.17Z"/><path class="cls-29" d="M124.25,396.05c-.32,3.44-8.27,6.74-17.69,6.73s-18.85-3.3-19.12-6.73,8.85-5.42,18.74-5.38S124.61,392,124.25,396.05Z"/><path class="cls-25" d="M121.1,395.82c-.18,1.45-2,2.26-3.21,2.75a25.76,25.76,0,0,1-6.64,1.6A38.92,38.92,0,0,1,95,398.83c-1.35-.43-3.7-1.1-4.37-2.52s1.45-2.24,2.51-2.6c4.93-1.69,10.62-1.62,15.79-1.46a41.18,41.18,0,0,1,8.3.88c1.41.33,3.93,1,3.87,2.75,0,.26.55.22.56-.05,0-1.36-1.31-2.11-2.46-2.55a25.45,25.45,0,0,0-7.62-1.31,78.65,78.65,0,0,0-9.95,0,35.9,35.9,0,0,0-8.33,1.3c-1.14.36-3.06,1-3.34,2.32s1.42,2.26,2.42,2.74a26,26,0,0,0,7.53,2.08,42.16,42.16,0,0,0,9.32.4,28.24,28.24,0,0,0,9-1.88c1.28-.54,3.25-1.44,3.44-3C121.68,395.59,121.13,395.57,121.1,395.82Z"/><path class="cls-29" d="M173.14,373.08c-.32,3.43-8.27,6.74-17.69,6.73s-18.85-3.3-19.12-6.73,8.85-5.43,18.75-5.39S173.5,369.06,173.14,373.08Z"/><path class="cls-25" d="M170,372.85c-.18,1.44-2,2.25-3.2,2.74a26,26,0,0,1-6.64,1.61,38.89,38.89,0,0,1-16.26-1.34c-1.36-.43-3.71-1.11-4.38-2.52s1.45-2.25,2.51-2.6c4.93-1.69,10.62-1.63,15.79-1.46a41.28,41.28,0,0,1,8.31.88c1.4.33,3.92,1,3.86,2.74,0,.27.55.22.56,0,0-1.35-1.31-2.11-2.45-2.55a26.21,26.21,0,0,0-7.62-1.31,78.81,78.81,0,0,0-10,0,34.87,34.87,0,0,0-8.33,1.3c-1.14.35-3.06,1-3.34,2.31s1.43,2.26,2.42,2.75a26.33,26.33,0,0,0,7.54,2.08,43.28,43.28,0,0,0,9.31.4,28.53,28.53,0,0,0,9-1.89c1.28-.53,3.25-1.44,3.44-3C170.57,372.62,170,372.6,170,372.85Z"/><path class="cls-29" d="M401.28,387c-.33,3.44-8.28,6.74-17.7,6.73s-18.85-3.3-19.12-6.73,8.85-5.43,18.75-5.39S401.63,383,401.28,387Z"/><path class="cls-25" d="M398.12,386.75c-.18,1.45-2,2.26-3.2,2.75a25.76,25.76,0,0,1-6.64,1.6A38.89,38.89,0,0,1,372,389.76c-1.35-.43-3.7-1.1-4.38-2.52s1.45-2.24,2.51-2.6c4.93-1.69,10.63-1.62,15.79-1.46a41.28,41.28,0,0,1,8.31.88c1.4.33,3.92,1,3.86,2.75,0,.26.55.22.56-.05,0-1.36-1.31-2.11-2.45-2.55a25.55,25.55,0,0,0-7.62-1.31,78.81,78.81,0,0,0-10,0,35.38,35.38,0,0,0-8.33,1.3c-1.14.36-3.06,1-3.34,2.32s1.43,2.26,2.42,2.74a26.33,26.33,0,0,0,7.54,2.08,42.68,42.68,0,0,0,9.31.4,28.46,28.46,0,0,0,9-1.88c1.28-.54,3.25-1.44,3.44-3C398.7,386.52,398.15,386.5,398.12,386.75Z"/><path class="cls-29" d="M443.36,403.71c-.32,3.44-8.27,6.75-17.7,6.73s-18.84-3.3-19.11-6.73,8.85-5.42,18.74-5.38S443.72,399.69,443.36,403.71Z"/><path class="cls-25" d="M440.21,403.49c-.18,1.44-2,2.25-3.21,2.74a25.78,25.78,0,0,1-6.64,1.61,39.08,39.08,0,0,1-16.26-1.34c-1.35-.44-3.7-1.11-4.37-2.52s1.45-2.25,2.51-2.61c4.93-1.68,10.62-1.62,15.79-1.46a42,42,0,0,1,8.3.88c1.41.33,3.93,1,3.87,2.75,0,.26.55.22.56-.05,0-1.36-1.31-2.11-2.46-2.55a26.15,26.15,0,0,0-7.62-1.31,76.83,76.83,0,0,0-9.95,0,35,35,0,0,0-8.34,1.3c-1.14.35-3.05,1-3.33,2.31s1.42,2.26,2.41,2.75A26.49,26.49,0,0,0,419,408a42.78,42.78,0,0,0,9.32.41,28.59,28.59,0,0,0,9-1.89c1.28-.53,3.25-1.44,3.44-3C440.79,403.26,440.24,403.23,440.21,403.49Z"/><path class="cls-29" d="M343.13,378.36c-.32,3.44-8.27,6.74-17.7,6.73s-18.84-3.3-19.11-6.73,8.85-5.43,18.74-5.39S343.49,374.34,343.13,378.36Z"/><path class="cls-25" d="M340,378.13c-.18,1.45-2,2.26-3.21,2.75a25.76,25.76,0,0,1-6.64,1.6,38.92,38.92,0,0,1-16.26-1.34c-1.35-.43-3.7-1.1-4.37-2.52S311,376.38,312,376c4.93-1.69,10.62-1.62,15.79-1.46a41.26,41.26,0,0,1,8.3.88c1.41.33,3.93,1,3.87,2.75,0,.26.55.22.56-.05,0-1.36-1.31-2.11-2.46-2.55a25.5,25.5,0,0,0-7.62-1.31,78.65,78.65,0,0,0-9.95,0,35.54,35.54,0,0,0-8.34,1.3c-1.14.36-3.05,1-3.33,2.32s1.42,2.26,2.41,2.74a26.51,26.51,0,0,0,7.54,2.08,42.77,42.77,0,0,0,9.32.4,28.57,28.57,0,0,0,9-1.88c1.28-.54,3.25-1.44,3.44-3C340.56,377.9,340,377.88,340,378.13Z"/><text class="cls-38" transform="translate(200.19 97.43)">Happy</text><path class="cls-5" d="M134.72,134.19a57.45,57.45,0,0,1,10.52-4.92c6-2.12,10.16-2.41,13.69-1.21a8.75,8.75,0,0,1,6,6.24c1.19,4.06-.61,8.42-4.67,11.51l0,.13c4.48-.38,10.31,1.51,12.09,7.76a12.15,12.15,0,0,1-1,9.45c-2,3.54-6.19,6.18-12.7,8.53a78,78,0,0,1-8.15,2.53Q142.65,154.2,134.72,134.19ZM146.9,148.7q2.55-.94,5.1-1.85c5.93-2.09,8.52-6.14,7.26-10.18-1.54-4.88-6.26-5.53-12.23-3.42a26.54,26.54,0,0,0-5.06,2.26Q144.43,142.11,146.9,148.7Zm7.35,19.65a32.08,32.08,0,0,0,4.47-1.36c5.4-1.93,9.8-5.53,7.93-11.61-1.75-5.71-7.59-6.5-13.67-4.33-1.53.54-3,1.1-4.58,1.67Z"/><path class="cls-5" d="M179.33,123.12c.52,1.88-.63,3.75-3,4.36a3.59,3.59,0,0,1-4.53-2.45,3.65,3.65,0,0,1,2.93-4.45A3.55,3.55,0,0,1,179.33,123.12Zm3.48,40.63q-4-15.18-8-30.38c2-.52,4-1,5.93-1.5q3.72,15.27,7.43,30.53C186.37,162.83,184.59,163.29,182.81,163.75Z"/><path class="cls-5" d="M192.61,139.23c-.76-3.63-1.47-6.73-2.28-9.54q2.61-.56,5.23-1.06c.46,2,.91,4,1.37,6l.27-.05a9.63,9.63,0,0,1,7.86-8.37,6.15,6.15,0,0,1,1.74-.08c.28,1.77.55,3.55.83,5.32a9.47,9.47,0,0,0-2,.13c-4.19.68-6.59,4.25-6.56,8.6a15.45,15.45,0,0,0,.23,2.67l3.12,16.45c-1.77.34-3.55.69-5.32,1.07Z"/><path class="cls-5" d="M220.86,115.73l1,9q4.32-.47,8.66-.81c.11,1.45.23,2.89.34,4.34-2.85.22-5.7.49-8.54.79q.9,8.43,1.81,16.85c.42,3.88,1.72,5.95,4.79,5.66a12.9,12.9,0,0,0,3.17-.67l.6,4.25a13.54,13.54,0,0,1-4.76,1.21,7.68,7.68,0,0,1-6.15-1.75c-1.75-1.49-2.67-4.19-3.13-7.86q-1.08-8.51-2.15-17c-1.69.22-3.38.44-5.07.68l-.61-4.3c1.71-.25,3.42-.48,5.14-.69-.32-2.49-.63-5-.95-7.48Q217.9,116.8,220.86,115.73Z"/><path class="cls-5" d="M236.45,108.77c2.11-.12,4.23-.22,6.34-.3q.39,9.8.76,19.59h.13a10.58,10.58,0,0,1,4.18-4.16,12.55,12.55,0,0,1,6.18-1.71c4.52,0,11.66,2.74,11.25,13.59l-.6,18.69q-2.73-.09-5.46-.12.11-9,.23-18c.08-5.06-1.83-9.41-7.5-9.36a8.33,8.33,0,0,0-7.83,5.91,6.86,6.86,0,0,0-.29,2.74q.36,9.47.73,18.94-2.73.1-5.46.27Q237.77,131.79,236.45,108.77Z"/><path class="cls-5" d="M306.51,112.17l-5.85,37.53c-.43,2.76-.85,5.91-1,8.06-1.62-.26-3.24-.5-4.87-.72.17-1.81.34-3.63.5-5.44l-.12,0a11.59,11.59,0,0,1-11,4.9c-7.15-.73-12.36-7.41-11.9-16.95.43-10.44,7.71-16.52,15.9-15.66,5.11.53,8.25,3.25,9.39,6h.14q1.26-9.28,2.53-18.59C302.31,111.54,304.41,111.84,306.51,112.17Zm-10,26.29a9.23,9.23,0,0,0,.06-2.41,8.48,8.48,0,0,0-7.72-7.61c-6.21-.66-10.27,4.29-10.76,11.21-.45,6.36,2.19,11.79,8.11,12.41a8.67,8.67,0,0,0,9-5.78,9.78,9.78,0,0,0,.59-2.41C296,142.07,296.26,140.27,296.5,138.46Z"/><path class="cls-5" d="M324.74,162.85c.18-1.31.35-2.63.53-3.95l-.19,0A11.62,11.62,0,0,1,315,161.32c-5.94-1.26-8.23-6.18-7.44-10.66,1.28-7.45,8.88-10.49,21.09-7.45l.15-.63c.63-2.5,1-7.28-5.61-8.78a16.3,16.3,0,0,0-8.9.54c-.2-1.31-.42-2.63-.64-4a20.49,20.49,0,0,1,11.34-.52c10.08,2.32,10.76,9.44,9.12,15.48q-1.51,5.68-3,11.35a47.5,47.5,0,0,0-1.46,7.41C328,163.68,326.35,163.26,324.74,162.85Zm3.06-15.76c-6.14-1.68-13.43-2-14.6,4-.71,3.64,1.3,5.82,4.07,6.43a7.88,7.88,0,0,0,8.47-3.43,5.91,5.91,0,0,0,.75-1.69C326.92,150.62,327.36,148.85,327.8,147.09Z"/><path class="cls-5" d="M348.32,136.81q.81,10,1.19,19.87c0,2.2,0,4.79-.14,6.74l.13,0c1.15-1.6,2.54-3.66,4-5.54q6-7.68,12.39-15.14,3,1.14,6.08,2.34-8.43,8.7-16.28,17.78c-7.51,8.75-11.72,13.15-16.22,15.24a14.78,14.78,0,0,1-7.29,1.62c0-1.66.06-3.32.08-5a14.76,14.76,0,0,0,5.3-1.33,18.38,18.38,0,0,0,6.3-4.67,4.19,4.19,0,0,0,.84-1.16,5,5,0,0,0,.11-1.54q-.9-15.53-2.94-31.16Q345.12,135.82,348.32,136.81Z"/><polygon class="cls-39" points="135.72 423.29 137.5 454.74 180.59 455.91 179.19 421.76 135.72 423.29"/><polygon class="cls-40" points="192.65 416.87 179.19 421.76 180.59 455.91 193.01 446.17 192.65 416.87"/><polygon class="cls-20" points="133.07 414.27 132.33 426.72 180.29 426.14 180.16 416.82 133.07 414.27"/><polygon class="cls-41" points="193.48 410.57 180.16 416.82 180.29 426.14 193.52 417.61 193.48 410.57"/><path class="cls-39" d="M193.48,410.57c-.46-.08-34.81-4-34.81-4l-25.6,7.69,47.09,2.55Z"/><path class="cls-29" d="M174.35,396.2c-3-3.85-8.64-4.14-17.22,9.08,0,0-9.5-12.27-19.9-4.67,0,0-9.52,8.59,18.52,12.12l-8.67,7.83,2.17,2.15L159.44,414l11.16,4.69,1.32-1.81-10.73-5.2S179.67,403.12,174.35,396.2Zm-30.26,11.34c-8.53-2.54-2.09-5.61-2.09-5.61,8.18-4.5,14.52,7.11,14.52,7.11Zm14.93.24s7.27-13,10.9-9.57C169.92,398.21,175.16,404.65,159,407.78Z"/><path class="cls-42" d="M154.73,426a188.53,188.53,0,0,0,2.51,29.34c.07.44,1.32.46,1.27.13A186.14,186.14,0,0,1,156,426.15c0-.42-1.27-.51-1.27-.12Z"/><path class="cls-42" d="M136.66,439.12a93.71,93.71,0,0,0,32-.51c3.65-.69,7.29-1.52,11-1.34.71,0,.27-1.12-.28-1.15a43.34,43.34,0,0,0-10.32,1.17,96.49,96.49,0,0,1-10.71,1.51,93.47,93.47,0,0,1-22-.83c-.68-.11-.25,1.07.28,1.15Z"/><path class="cls-41" d="M180.05,437.13c4.8-1.66,8.51-5.28,13.24-7.08-.21.08-.84-.61-1.18-.48-4.73,1.81-8.45,5.43-13.24,7.08.22-.08.83.6,1.18.48Z"/><polygon class="cls-30" points="297.34 413.29 339.43 400.78 393.68 432.73 345.68 444.22 297.34 413.29"/><polygon class="cls-39" points="343.99 455.71 300.21 427.65 297.34 413.29 345.68 444.22 343.99 455.71"/><polygon class="cls-40" points="393.68 432.73 391.99 444.56 343.99 455.71 345.68 444.22 393.68 432.73"/><path class="cls-43" d="M324.59,441.05q.69-6.41.76-12.86c0-2.56-7.2-4.81-7.23-1.75q-.08,6.45-.77,12.86c-.06.61.82,1.44,1.2,1.75a6.9,6.9,0,0,0,2.66,1.27c1.28.31,3.2.38,3.38-1.27Z"/><path class="cls-24" d="M323.87,430c15.49-5.86,31.91-8.34,48.21-10.76-1.71-1.83-3.41-3.67-5.11-5.5a3.56,3.56,0,0,0-1.9,1.2c-.84,1,4.73,6.18,5.35,5.46a3.63,3.63,0,0,1,1.9-1.21c.55-.15-1.73-2.83-1.78-2.89a16.52,16.52,0,0,0-1.78-1.67c-.34-.28-1.09-1-1.55-.94-16.46,2.45-33.06,4.94-48.69,10.86-.6.22,1.92,3.05,2.13,3.26.57.58,2.25,2.56,3.22,2.19Z"/><path class="cls-29" d="M356.82,402.14c-3.19-3.67-8.87-3.63-16.66,10.07,0,0-10.2-11.68-20.14-3.49,0,0-9,9.14,19.2,11L331,428.06l2.28,2,9.67-9.27,11.42,4,1.21-1.88-11-4.57S362.54,408.74,356.82,402.14Zm-29.54,13.1c-8.67-2-2.42-5.48-2.42-5.48,7.9-5,14.91,6.25,14.91,6.25Zm14.91-.64s6.5-13.38,10.33-10.19C352.52,404.41,358.12,410.53,342.19,414.6Z"/><path class="cls-25" d="M312.79,415.51l2.46-.68c.51-.14-.21-1.18-.66-1.05l-2.46.68c-.51.14.21,1.18.66,1.05Z"/><path class="cls-25" d="M342.07,435.69l3.72-.42c.29,0,0-.33-.06-.42a1.14,1.14,0,0,0-.83-.27l-3.72.42c-.3,0,0,.33.06.42a1.14,1.14,0,0,0,.83.27Z"/><path class="cls-25" d="M375.59,432.52a16.55,16.55,0,0,0,2.79-.45c.78-.19.17-1.22-.49-1.06a14.94,14.94,0,0,1-2.48.42c-.83.06-.53,1.15.18,1.09Z"/><path class="cls-25" d="M344.59,427.88a5.63,5.63,0,0,0,2.42-1.17c.51-.42-.63-.89-1-.58a4.41,4.41,0,0,1-1.93,1c-.24,0-.46.23-.32.49a.88.88,0,0,0,.84.29Z"/><path class="cls-25" d="M354.14,439.26a3,3,0,0,1,1.84.06c.22.07.57-.16.75-.27s.47-.35.28-.41a3.67,3.67,0,0,0-2.2,0,1.72,1.72,0,0,0-.79.44c-.14.15-.13.28.12.21Z"/><path class="cls-25" d="M364.38,429.23a8.44,8.44,0,0,0,2.9.43c.55,0-.23-1-.61-1a7.58,7.58,0,0,1-2.67-.38c-.25-.08-.34.08-.28.31a1.17,1.17,0,0,0,.66.61Z"/><path class="cls-25" d="M354.47,430.15a9.48,9.48,0,0,0,2.28,1.12.91.91,0,0,0,.86-.21c.15-.15.29-.5,0-.59a8.31,8.31,0,0,1-2.08-1,.76.76,0,0,0-.83,0c-.15.1-.47.46-.22.63Z"/><path class="cls-25" d="M348,410.63a4.41,4.41,0,0,0,1.66-1.06c.08-.09-.42-.1-.45-.09s-.65,0-.78.09a4.16,4.16,0,0,1-1.53,1c-.23.09.18.11.24.11a2.27,2.27,0,0,0,.86-.07Z"/><path class="cls-25" d="M338.15,405.23l1.24.16a.42.42,0,0,0,.43-.53.79.79,0,0,0-.69-.57l-1.24-.16a.42.42,0,0,0-.43.53.79.79,0,0,0,.69.57Z"/><path class="cls-44" d="M343,311.82s-17,8.78-17.43,20.71c-.15,4.59.94,9.54,12.5,11.84,0,0-14.65,3.82-13.28,11.36,0,0,28.65,15.37,38.5,4.17,0,0-.21-10.63-2.87-15.21,0,0,9.26-4.95,6.86-15.37a63.59,63.59,0,0,0-4-10.72C360.84,313.84,353.3,309.54,343,311.82Z"/><path class="cls-44" d="M345.55,316.59s8.48-49.51-6.58-49.2c-8.66.18-8.86,19-2.77,50.39"/><path class="cls-4" d="M342.73,314.57l-3.08.25s-10.13-37.85-1.59-38.08C342.75,276.61,345.49,280,342.73,314.57Z"/><path class="cls-45" d="M347.62,297.8l-10.09,17.27s10.36,5,20.3,1.43l-8.58-18.41S348.84,296.34,347.62,297.8Z"/><path class="cls-30" d="M351.59,312.94c-.07.77-1,1.32-2,1.22s-1.84-.78-1.77-1.55,1-1.32,2-1.22S351.66,312.18,351.59,312.94Z"/><path class="cls-30" d="M352.29,307.64c-.57,1.23-2.37,1.6-4,.83s-2.55-2.38-2-3.61,2.37-1.6,4-.84S352.86,306.41,352.29,307.64Z"/><path class="cls-30" d="M342.23,312.4c1.83-.06,3.28-1.24,3.23-2.61s-1.58-2.44-3.42-2.37h0l-2.42,4.13A3.79,3.79,0,0,0,342.23,312.4Z"/><path class="cls-29" d="M348.32,300.2c-2.05,0-8.58-4.05-5.88-5.74,0,0,.08-.46,1.4.25a3.29,3.29,0,0,1,1.05-4.62c.87-.59,3.66-.32,3.76,1.86,0,0-.26-5.33,4-3.85,0,0,4,1.91-.41,6.42,0,0,4.13-.24,1.14,3.08C353.42,297.6,349.75,300.18,348.32,300.2Z"/><path class="cls-44" d="M353.3,318.23s7.53-57.29,23.52-51.87c9.18,3.12,3.05,23.29-14.06,54.76"/><path class="cls-4" d="M356.87,315.48l3.21,1.31s23.59-37,14.55-40.14C369.67,274.94,365.59,277.64,356.87,315.48Z"/><path class="cls-7" d="M349.61,327.42c-.12,1.33-.93,2.34-1.82,2.26s-1.5-1.22-1.39-2.54.93-2.34,1.82-2.27S349.73,326.09,349.61,327.42Z"/><path class="cls-7" d="M337.94,324.77c-.11,1.33-.93,2.34-1.81,2.27s-1.51-1.22-1.39-2.55.93-2.34,1.81-2.26S338.06,323.45,337.94,324.77Z"/><path class="cls-4" d="M357.45,336.23c-.13,1.47-2.22,2.48-4.68,2.26s-4.33-1.58-4.2-3,2.22-2.48,4.67-2.27S357.58,334.76,357.45,336.23Z"/><path class="cls-4" d="M335.71,334c-.41,1.13-2.28,1.5-4.17.83s-3.11-2.15-2.71-3.29,2.27-1.5,4.17-.83S336.11,332.84,335.71,334Z"/><path class="cls-7" d="M340.88,334.09c-.26,1.42-1.08,6.23-3.51,5.19a3.24,3.24,0,0,1-1.85-2.71c0-.13-.29,0-.3.1a3.28,3.28,0,0,0,2.41,3c2.51.37,3.24-4,3.54-5.58,0-.16-.27-.07-.29,0Z"/><polygon class="cls-7" points="340.96 336.23 338.58 337.25 339.01 339.1 341.54 337.85 340.96 336.23"/><path class="cls-24" d="M320.1,335.83s2.55-.5,2,2.64c0,.23,1.36,1.11,1.55,1a3.42,3.42,0,0,0,1.39-3.67S323.25,334.2,320.1,335.83Z"/><path class="cls-24" d="M339,339.1a76.89,76.89,0,0,1-10.61,5.8c-7,2.74-9.45,2.58-11.61,1.3-4.35-2.58.89-7.64.89-7.64-2.3,8.1,10.95,2.14,10.95,2.14l9.95-3.45Z"/><path class="cls-12" d="M315.84,337.32c-3.87,5.29-.73,7.92.76,8.8.1.05.2-.06.13-.14-1.88-2.05.31-5.69,1.23-7.2a9.15,9.15,0,0,1,3-2.42c2.85-1.13,4.25.66,4.25.66s1-3.49-4.84-2.56A10,10,0,0,0,315.84,337.32Z"/><path class="cls-7" d="M347.57,338.43c-.88,1.3-2.58,2.47-4.2,1.84-2.25-.87-2.31-4-2.2-6,0-.14-.3-.18-.31,0-.13,2.16,0,5.51,2.55,6.29,1.75.54,3.5-.58,4.46-2,.08-.13-.22-.22-.3-.1Z"/><path class="cls-46" d="M338.08,331a5.18,5.18,0,0,1,5.95.51.79.79,0,0,1,.14,1.16c-1,1.12-3.31,2.91-6.25-.81A.59.59,0,0,1,338.08,331Z"/><path class="cls-21" d="M98.13,139l5.16-1.44c1.53-.42-.62-3.54-2-3.16l-5.16,1.44c-1.53.42.62,3.53,2,3.16Z"/><path class="cls-45" d="M46.55,75.58l7.81-.9c.87-.1.13-1-.19-1.25a3.54,3.54,0,0,0-2.49-.82l-7.81.89c-.88.1-.14,1,.18,1.26a3.66,3.66,0,0,0,2.5.82Z"/><path class="cls-22" d="M54.55,44.42a12.19,12.19,0,0,0,5.33-2.53c1.52-1.28-1.91-2.69-3.05-1.74A8.7,8.7,0,0,1,53,42.08c-.71.15-1.41.71-1,1.48a2.54,2.54,0,0,0,2.5.86Z"/><path class="cls-24" d="M31.77,120.38a6.18,6.18,0,0,1,3.71.13c.67.22,1.72-.47,2.24-.81.16-.11,1.42-1,.86-1.21a8.1,8.1,0,0,0-4.8-.06,5.37,5.37,0,0,0-2.37,1.3c-.44.46-.37.86.36.65Z"/><path class="cls-22" d="M36.59,200.72a19.74,19.74,0,0,0,4.87,2.41,2.63,2.63,0,0,0,2.57-.64c.46-.44.87-1.48,0-1.77a17.39,17.39,0,0,1-4.29-2,2.28,2.28,0,0,0-2.49.16c-.44.29-1.41,1.36-.65,1.87Z"/><path class="cls-22" d="M28.45,164.18A9.3,9.3,0,0,0,32,161.92c.25-.27-1.24-.27-1.35-.27a12.08,12.08,0,0,0-1.47.09c-.23,0-.71,0-.87.21a8.74,8.74,0,0,1-3.15,2.11c-.71.27.54.33.7.34a7.18,7.18,0,0,0,2.61-.22Z"/><path class="cls-24" d="M121.16,57.22A9.22,9.22,0,0,0,124.69,55c.26-.27-1.23-.27-1.35-.27a12.08,12.08,0,0,0-1.47.09c-.22,0-.7,0-.86.21a8.74,8.74,0,0,1-3.15,2.11c-.71.27.53.33.7.34a7.1,7.1,0,0,0,2.6-.22Z"/><path class="cls-22" d="M399.4,129.67l5.16-1.43c1.53-.42-.62-3.54-2-3.16l-5.16,1.44c-1.53.42.62,3.53,2,3.15Z"/><path class="cls-24" d="M383.19,65.6a12.16,12.16,0,0,0,5.32-2.53c1.53-1.28-1.91-2.7-3.05-1.75a8.72,8.72,0,0,1-3.82,1.93c-.72.16-1.42.71-.95,1.48a2.56,2.56,0,0,0,2.5.87Z"/><path class="cls-22" d="M471.41,164.82a6.21,6.21,0,0,1,3.72.13c.66.22,1.71-.47,2.23-.81.17-.11,1.43-1,.86-1.21a8.1,8.1,0,0,0-4.8-.06,5.33,5.33,0,0,0-2.36,1.3c-.44.46-.38.86.35.65Z"/><path class="cls-21" d="M479,127.68a17.6,17.6,0,0,0,6.19.93c1.63-.05-.69-2.92-1.82-2.89a15.56,15.56,0,0,1-5.51-.78c-.74-.25-1.09.23-.85.91a3.39,3.39,0,0,0,2,1.83Z"/><path class="cls-45" d="M397,203.8a19.34,19.34,0,0,0,4.86,2.41,2.63,2.63,0,0,0,2.57-.63c.46-.44.88-1.49,0-1.77a17.07,17.07,0,0,1-4.29-2,2.27,2.27,0,0,0-2.48.16c-.45.29-1.42,1.36-.65,1.87Z"/><path class="cls-45" d="M470.94,80.57a19.2,19.2,0,0,0,4.87,2.4,2.63,2.63,0,0,0,2.57-.63c.46-.44.87-1.48,0-1.77a17.07,17.07,0,0,1-4.29-2,2.28,2.28,0,0,0-2.49.16c-.44.29-1.41,1.36-.65,1.88Z"/><path class="cls-24" d="M452.44,71.06A9.26,9.26,0,0,0,456,68.8c.26-.27-1.23-.27-1.34-.27a12,12,0,0,0-1.47.09c-.23,0-.71,0-.87.21a8.74,8.74,0,0,1-3.15,2.11c-.71.27.54.33.7.34a7.18,7.18,0,0,0,2.61-.22Z"/><path class="cls-44" d="M330.39,347.79c-3.82,1.27-7.64,5.6-7.64,5.6a4.23,4.23,0,0,0,0,5.7s7.63,7.76,11,9.08c2.5,1,10.35.4,4.84-7.65-1.34-2-6.67-6-6.67-6a1,1,0,0,1-.16-1.4l.72-1"/><path class="cls-47" d="M330.27,347.7a18.89,18.89,0,0,0-6.42,4.3c-1.31,1.25-2.58,2.47-2.51,4.44.05,1.72,1.05,2.73,2.18,3.84,1.49,1.45,3,2.88,4.59,4.24,2.58,2.23,5.2,4.58,8.82,4.07a4.94,4.94,0,0,0,3.16-1.48c1.22-1.46.55-3.5-.23-5a19.4,19.4,0,0,0-5.32-5.81c-.72-.59-1.55-1.13-2.23-1.78-.91-.86-.17-1.63.4-2.42.13-.19-.47-.09-.56,0-.73,1-1.36,1.81-.24,2.76,1.43,1.2,2.93,2.31,4.31,3.58,2,1.86,6.48,7.6,2.18,9.49-3.17,1.39-6-.64-8.37-2.55a62.81,62.81,0,0,1-7-6.44c-1.7-1.9-1.19-4.37.44-6.07a19,19,0,0,1,7-5c.41-.14,0-.26-.23-.17Z"/><path class="cls-44" d="M360.54,344.67l6.63,11.2c2.46,4.52.57,11.16-4.32,12.76,0,0-12,4.92-16.32,5.33-10.22,1-7.89-7.39-7.89-7.39.51-5.86,17.83-8.91,17.83-8.91l-.51-1.53"/><path class="cls-47" d="M360.23,344.68c2.18,3.7,4.48,7.36,6.57,11.12a9.73,9.73,0,0,1-.4,9.78c-1.46,2.26-3.78,3-6.14,4-3.24,1.26-6.51,2.48-9.85,3.46s-7.82,2.05-10.4-.8a6,6,0,0,1-1.19-5,5.92,5.92,0,0,1,2.58-4.14c2.76-2,6.24-3.13,9.49-4.05,1.91-.53,3.85-1,5.8-1.36,0,0,.1,0,.1,0l-.51-1.53c0-.1-.64,0-.64,0,.07.22.59,1.51.6,1.5s-.49.09-.55.1c-1,.19-1.92.4-2.87.63a47,47,0,0,0-9.19,3.07c-2.26,1.08-4.78,2.52-5.31,5.15a7.37,7.37,0,0,0,.23,4.36c1.18,2.75,4.38,3.22,7,3.11,3.25-.14,6.42-1.32,9.47-2.38,2.69-.94,5.35-2,8-3a8.75,8.75,0,0,0,5.5-8.58c-.05-3.18-1.94-5.69-3.49-8.31l-4.21-7.12c-.07-.12-.61.07-.63,0Z"/><path class="cls-10" d="M69.7,28s9.32,15,11.72,16.85L91.91,26.49S83.86,28.64,69.7,28Z"/><path class="cls-2" d="M106.33,24.47s9.41,17.4,13,18.45L133,17.82Z"/><polygon class="cls-43" points="143.59 13.65 155.08 26.87 161.5 4.5 143.59 13.65"/><path class="cls-30" d="M55.59,28.06S46.28,46.21,45,46.93c0,0-9.75-11.83-8.87-20.09C36.13,26.84,52.79,28.89,55.59,28.06Z"/><polygon class="cls-3" points="24.36 25.99 15.4 42.02 5.79 21.98 24.36 25.99"/><path class="cls-48" d="M433.68,33.07s-8.32,15.62-10.61,17.57L411.42,33S419.59,34.63,433.68,33.07Z"/><path class="cls-17" d="M396.77,32.67s-8.38,17.9-11.93,19.17l-15-24.28Z"/><polygon class="cls-43" points="356.15 21.07 346.09 33.37 341.14 10.63 349.96 17.75 356.15 21.07"/><path class="cls-30" d="M446.75,32.15S457.58,49.43,458.91,50c0,0,8.7-12.62,7.12-20.77C466,29.27,449.61,32.74,446.75,32.15Z"/><polygon class="cls-10" points="476.39 27.54 485.35 43.56 494.96 23.52 476.39 27.54"/><path class="cls-30" d="M268.83,28s-7.17,16.18-9.31,18.29L246.63,29.57S254.89,30.6,268.83,28Z"/><path class="cls-48" d="M231.09,28.89s-7.83,17.34-11.38,18.61l-12.42-24Z"/><polygon class="cls-17" points="191.03 15.62 181.29 27.53 176.34 4.8 185.17 11.91 191.03 15.62"/><path class="cls-10" d="M280.9,26.17s12.52,16.11,13.91,16.57c0,0,7.38-13.43,5-21.38C299.79,21.36,283.8,26.47,280.9,26.17Z"/><polygon class="cls-2" points="310.7 17.21 324.89 28.87 326.53 6.7 310.7 17.21"/><path class="cls-5" d="M500,21.07c-37.46,9.46-78,16.23-116.13,8.21-16.56-3.49-33.89-10.5-45-23.84A32.82,32.82,0,0,1,335.06,0h-4.68c-15.32,20.94-47,26.51-71.2,28.29-25.28,1.86-52.92-3-73.65-18.37A59.77,59.77,0,0,1,174.64,0h-7.5c-7.28,5.32-15.86,9.3-24,12.7-25.35,10.51-53,14.76-80.35,14.56A288.51,288.51,0,0,1,0,19.44v2.67C53.75,34,114.53,33.77,162.91,5c2.49-1.48,5-3,7.37-4.75,10.66,15,31.17,23.49,48.22,27.34,24.64,5.57,51.19,3.69,75.35-3.4C308,20.08,322.37,13.6,331.93,2.1c3.7,6.88,10.76,12.56,17,16.59,22.2,14.32,50.5,16.88,76.24,16,25.27-.87,50.32-5.44,74.82-11.58Z"/><path class="cls-22" d="M452.85,153.46A52.65,52.65,0,0,0,446,166.69,51.86,51.86,0,0,0,443,180a46,46,0,0,0,1.14,14.46c1.92,8.43,4.12,17,4.21,25.69a23.55,23.55,0,0,1-2.14,10.61c-1.57,3.34-3.09,6.7-4.45,10.13a61.26,61.26,0,0,0-3.87,12.93c-.49,3.11-.75,6.89,1.25,9.56.25.32.81-.37.6-.65-1.89-2.53-1.67-6.07-1.21-9a57,57,0,0,1,3.4-11.7c1.33-3.46,2.84-6.85,4.41-10.21a31.52,31.52,0,0,0,1.71-4,22.12,22.12,0,0,0,.9-5.24c.54-8.38-1.47-16.89-3.32-25-1-4.31-2-8.57-2.13-13A47.16,47.16,0,0,1,445.55,170a52.57,52.57,0,0,1,7.75-16.21c.33-.45-.12-.74-.45-.3Z"/><polygon class="cls-21" points="445.32 173.57 448.7 180.38 441.22 182.21 441.62 175.88 445.32 173.57"/><path class="cls-10" d="M463.63,152.89c.58-11-3.39-22.92-13.77-26.63A19.34,19.34,0,0,0,430,131.1c-7.76,8.12-9.24,23.65-4.39,34.18,3.9,8.47,12,12.89,20.35,11.39.42-.07.82-.16,1.22-.25l.06,0C457.48,173.9,462.82,164.27,463.63,152.89Zm-26.37-26.28a12.71,12.71,0,0,1,3.48-1A16.65,16.65,0,0,0,437.26,126.61Z"/><path class="cls-21" d="M418.92,87.4a44.93,44.93,0,0,0-5.08,11.52,41.24,41.24,0,0,0-.3,23.78c2.08,7.11,4.43,14.31,5,21.74a20.17,20.17,0,0,1-1.22,9.37c-1.18,3-2.31,5.95-3.3,9a52.76,52.76,0,0,0-2.6,11.16c-.27,2.73-.29,6,1.58,8.22.27.33.83-.44.59-.73-1.78-2.11-1.75-5.21-1.49-7.81a50.46,50.46,0,0,1,2.32-10.15c1-3,2.08-6,3.24-8.94a20.93,20.93,0,0,0,1.68-7.88c0-7.19-2.15-14.36-4.16-21.19a55.47,55.47,0,0,1-2.52-11.07,40.64,40.64,0,0,1,1-12.53,44.76,44.76,0,0,1,5.75-14.19c.32-.49-.18-.78-.5-.29Z"/><polygon class="cls-24" points="415.2 100.58 416.56 106.96 409.97 106.88 411.64 101.71 415.2 100.58"/><path class="cls-11" d="M430.83,79.13c-.11-9.29-4.19-18.78-13.36-20.44-5.9-1.07-12.89,1.76-16.91,6.83-6.27,7.9-6.7,21.15-1.94,29.31a14.94,14.94,0,0,0,18.23,6.72l1-.38.05,0C426.65,97.62,430.74,88.79,430.83,79.13ZM406.58,60.74a12.39,12.39,0,0,1,3-1.28A16.35,16.35,0,0,0,406.58,60.74Z"/><path class="cls-23" d="M475.74,233.9a45.08,45.08,0,0,0-4.94,11.58,41.36,41.36,0,0,0,0,23.79c2.17,7.08,4.61,14.25,5.28,21.67a20.25,20.25,0,0,1-1.11,9.39c-1.14,3-2.24,6-3.2,9a53,53,0,0,0-2.46,11.19c-.24,2.73-.22,6,1.68,8.2.28.33.82-.45.58-.73-1.81-2.09-1.81-5.19-1.58-7.79A50.86,50.86,0,0,1,472.17,310c.93-3,2-6,3.13-9a20.83,20.83,0,0,0,1.59-7.9c-.07-7.19-2.32-14.34-4.42-21.14a55.16,55.16,0,0,1-2.65-11,40.61,40.61,0,0,1,.85-12.53,45,45,0,0,1,5.57-14.27c.32-.5-.19-.77-.5-.28Z"/><polygon class="cls-45" points="472.19 247.13 473.63 253.48 467.03 253.49 468.64 248.3 472.19 247.13"/><path class="cls-17" d="M487.53,224.16c-.21-9.28-4.4-18.41-13.59-19.28-5.9-.55-12.85,2.89-16.8,8.3-6.17,8.45-6.45,21.73-1.59,29.47,3.92,6.24,11.2,8.18,18.29,5.14l1-.47.05,0C483.58,243,487.57,233.83,487.53,224.16Zm-24.44-16.28a13.58,13.58,0,0,1,3-1.54A17.67,17.67,0,0,0,463.09,207.88Z"/><path class="cls-22" d="M84.47,87.61A48.67,48.67,0,0,1,90,100.25a48,48,0,0,1,2,13,45.11,45.11,0,0,1-2.16,13.54c-2.19,7.38-4.51,14.88-5.16,22.6a22,22,0,0,0,1,9.83C86.85,162.12,88,165,89,168a70.64,70.64,0,0,1,3.27,12.2c.49,3.19,1,7.5-1.29,10.17-.31.37-.06,1,.35.49,1.74-2.06,2-4.9,2-7.5a44.65,44.65,0,0,0-2-10.79c-1-3.59-2.3-7.11-3.65-10.59-1.18-3.07-2.3-5.84-2.39-9.18-.23-8.28,2.42-16.62,4.74-24.47a56.78,56.78,0,0,0,2.6-12,45.26,45.26,0,0,0-1.17-13.62,50.13,50.13,0,0,0-6.41-15.82c-.22-.34-.79.41-.59.72Z"/><polygon class="cls-21" points="89.17 106.2 85.59 112.39 92.5 114.54 92.5 108.58 89.17 106.2"/><path class="cls-30" d="M87.1,107.54l.06,0c.37.18.75.35,1.13.51,7.82,3.23,15.78,1,20-5.88,5.23-8.56,4.75-23.12-2.12-32.3C101.75,64,94.08,60.34,87.62,61,77.56,62.09,73.08,72.16,73,82.34,73.06,92.94,77.55,103,87.1,107.54Zm9.21-45a15,15,0,0,1,3.24,1.66A19.46,19.46,0,0,0,96.31,62.51Z"/><path class="cls-22" d="M380.25,200.84a33.17,33.17,0,0,0-4,8.75,31.9,31.9,0,0,0-1.47,9,30.23,30.23,0,0,0,1.56,9.37c1.58,5.11,3.25,10.3,3.72,15.64a14.71,14.71,0,0,1-.69,6.81c-.83,2-1.67,4.05-2.41,6.11a47,47,0,0,0-2.36,8.44c-.35,2.21-.7,5.19.93,7,.22.26,0,.67-.25.34a7.28,7.28,0,0,1-1.42-5.19,29.48,29.48,0,0,1,1.44-7.47c.75-2.48,1.66-4.92,2.63-7.33a17.72,17.72,0,0,0,1.73-6.35c.16-5.73-1.74-11.5-3.42-16.94a37.74,37.74,0,0,1-1.88-8.31,30.3,30.3,0,0,1,.84-9.44,34.05,34.05,0,0,1,4.63-10.94c.16-.24.57.28.43.49Z"/><polygon class="cls-21" points="375.13 214.19 377.71 218.66 372.72 220.21 372.72 215.91 375.13 214.19"/><path class="cls-30" d="M386.82,197c-.08-7.35-3.31-14.62-10.57-15.39-4.67-.49-10.21,2.16-13.39,6.41-5,6.62-5.3,17.13-1.53,23.31,3,5,8.78,6.58,14.43,4.25l.82-.37,0,0C383.51,211.86,386.76,204.62,386.82,197Zm-19.19-13.12a10.74,10.74,0,0,1,2.34-1.19A13.57,13.57,0,0,0,367.63,183.85Z"/><path class="cls-21" d="M111.48,268.4a20.49,20.49,0,0,1-.88-9.14c.6-7.2,2.77-14.2,4.82-21.1a41.79,41.79,0,0,0,2-12.65,44.82,44.82,0,0,0-1.93-12.06,45.42,45.42,0,0,0-5.13-11.65h0c-.17-.26.31-.9.5-.61a46.71,46.71,0,0,1,5.94,14.62,42.28,42.28,0,0,1,1.12,12.68,52.57,52.57,0,0,1-2.39,11.14c-2.17,7.3-4.62,15-4.46,22.74a16.47,16.47,0,0,0,.71,4.78C112.18,268.44,111.48,268.4,111.48,268.4Z"/><polygon class="cls-24" points="114.64 214.8 113.25 221.31 119.98 221.23 118.27 215.96 114.64 214.8"/><path class="cls-43" d="M111.92,216.07l0,0c.34.1.69.21,1,.3,7.19,1.84,14.51-1.48,18.37-8.62,4.8-8.86,4.35-22.5-2-30.08a17.08,17.08,0,0,0-17-5.5c-9.25,2.56-13.36,12.73-13.45,22.33C99,204.49,103.14,213.23,111.92,216.07Zm8.43-43.82a11.68,11.68,0,0,1,3,1.06A15,15,0,0,0,120.35,172.25Z"/><path class="cls-23" d="M54.36,165.65a49.43,49.43,0,0,1,5.57,12.62,48.88,48.88,0,0,1,2.13,13A44.81,44.81,0,0,1,60,205.09c-2.24,7.56-4.63,15.22-5.32,23.11a22.87,22.87,0,0,0,.89,10c1.12,3,2.32,5.87,3.36,8.85a72.64,72.64,0,0,1,3.4,12.54c.52,3.27,1.05,7.7-1.26,10.44-.35.42-.07,1.09.39.55,1.79-2.12,2.11-5.05,2-7.73a45.72,45.72,0,0,0-2-10.81c-1.06-3.72-2.38-7.36-3.77-11-1.22-3.15-2.33-6-2.4-9.41-.17-8.44,2.54-16.92,4.91-24.93a55,55,0,0,0,2.58-12.22,46.65,46.65,0,0,0-1.23-13.68,51,51,0,0,0-6.5-16c-.25-.39-.88.45-.66.8Z"/><polygon class="cls-45" points="59.11 179.78 57.59 186.88 64.94 186.79 63.08 181.04 59.11 179.78"/><path class="cls-17" d="M56.06,180l.06,0c.38.18.76.35,1.15.51,7.95,3.29,16,1,20.31-6,5.31-8.69,4.83-23.48-2.16-32.81-4.48-6-12.27-9.71-18.83-9-10.22,1.09-14.77,11.31-14.88,21.66C41.8,165.17,46.36,175.35,56.06,180Zm9.35-45.74a14.65,14.65,0,0,1,3.3,1.68A19,19,0,0,0,65.41,134.26Z"/></g></svg>